<svg xmlns="http://www.w3.org/2000/svg" width="1577" height="665" viewBox="0 0 1577 665">
<g>
<path d="M 467.31,202.63 L 467.56,202.01 L 467.36,201.50 L 466.55,200.44 L 465.78,200.00 L 465.39,200.00 L 464.41,200.44 L 464.00,201.09 L 464.00,201.50 L 464.05,201.69 L 464.04,201.67 L 463.89,201.32 L 464.06,200.60 L 465.15,199.78 L 465.38,199.71 L 465.60,199.37 L 465.66,199.17 L 465.57,198.63 L 465.49,198.33 L 465.12,197.61 L 464.90,197.24 L 464.28,196.39 L 463.61,195.51 L 461.64,193.53 L 458.02,190.51 L 456.74,189.58 L 453.79,187.80 L 452.26,186.93 L 448.85,185.30 L 447.10,184.50 L 443.31,183.05 L 441.38,182.34 L 437.29,181.08 L 435.22,180.47 L 430.90,179.42 L 428.72,178.93 L 424.25,178.12 L 422.00,177.75 L 417.46,177.20 L 410.64,176.69 L 409.33,176.64 L 406.39,176.65 L 404.88,176.67 L 401.59,176.83 L 398.24,177.03 L 390.95,177.81 L 387.28,178.25 L 380.00,179.46 L 378.22,179.79 L 374.80,180.50 L 370.00,181.65 L 368.54,182.03 L 365.87,182.73 L 364.57,183.07 L 362.21,183.69 L 359.91,184.28 L 356.06,185.24 L 354.24,185.68 L 351.08,186.37 L 349.56,186.69 L 346.77,187.17 L 345.39,187.39 L 342.64,187.71 L 341.24,187.85 L 338.21,188.06 L 336.63,188.16 L 332.99,188.31 L 326.50,188.53 L 325.17,188.57 L 322.77,188.63 L 321.61,188.65 L 319.52,188.67 L 317.51,188.67 L 314.22,188.54 L 312.67,188.46 L 310.05,188.14 L 306.50,187.41 L 304.85,186.98 L 301.60,186.17 L 300.85,185.99 L 299.59,185.70 L 298.24,185.40 L 297.86,185.33 L 296.64,184.91 L 295.97,184.66 L 294.27,183.94 L 293.38,183.56 L 291.36,182.63 L 290.32,182.15 L 288.14,181.08 L 285.94,179.99 L 281.69,177.72 L 280.69,177.17 L 278.93,176.15 L 276.80,174.80 L 276.09,174.31 L 274.52,173.09 L 273.72,172.44 L 272.01,170.93 L 270.27,169.37 L 266.63,165.69 L 264.82,163.80 L 261.43,159.87 L 260.62,158.90 L 259.14,157.01 L 257.19,154.30 L 256.68,153.55 L 255.83,152.30 L 255.42,151.72 L 254.75,150.80 L 254.43,150.38 L 253.89,149.75 L 253.63,149.46 L 253.16,149.08 L 252.70,148.75 L 251.78,148.68 L 249.99,149.15 L 249.58,149.30 L 248.25,150.18 L 247.53,150.71 L 245.74,152.20 L 244.81,153.01 L 242.79,154.93 L 239.74,158.07 L 238.97,158.92 L 237.60,160.44 L 236.95,161.19 L 235.80,162.57 L 234.70,163.94 L 232.88,166.63 L 232.00,168.03 L 230.30,171.33 L 229.86,172.22 L 228.92,174.25 L 227.39,177.72 L 225.98,180.96 L 223.27,187.51 L 222.65,189.03 L 221.62,191.63 L 221.39,192.23 L 221.00,193.26 L 220.55,194.50 L 220.04,195.99 L 218.97,199.50 L 218.43,201.33 L 217.34,205.41 L 216.80,207.50 L 215.71,211.98 L 215.18,214.26 L 214.14,219.00 L 213.11,223.78 L 211.32,233.47 L 210.91,235.86 L 210.18,240.47 L 209.29,247.00 L 209.16,248.04 L 208.96,250.75 L 208.86,252.20 L 208.72,255.55 L 208.66,257.29 L 208.58,261.07 L 208.55,263.00 L 208.53,267.00 L 208.53,271.03 L 208.71,278.83 L 208.78,280.69 L 208.95,284.09 L 209.28,288.50 L 209.69,292.74 L 210.60,300.96 L 211.07,305.02 L 212.08,312.83 L 212.60,316.67 L 213.71,324.00 L 214.27,327.60 L 215.45,334.40 L 216.05,337.73 L 217.31,343.94 L 217.94,346.97 L 219.25,352.53 L 219.92,355.23 L 221.28,360.08 L 223.37,366.50 L 223.67,367.32 L 224.19,369.02 L 224.66,370.88 L 224.71,371.26 L 225.12,372.17 L 225.93,373.33 L 226.22,373.62 L 226.69,374.48 L 227.00,375.73 L 227.00,375.88 L 227.25,376.70 L 227.41,377.18 L 227.93,378.53 L 228.21,379.26 L 228.93,381.00 L 229.30,381.90 L 230.15,383.85 L 231.01,385.83 L 232.84,389.78 L 233.28,390.71 L 234.10,392.38 L 235.16,394.42 L 235.31,394.69 L 235.78,395.53 L 236.03,395.99 L 236.66,397.12 L 238.77,400.92 L 239.46,402.18 L 240.81,404.25 L 241.12,404.70 L 241.63,405.34 L 242.16,405.84 L 242.39,405.93 L 242.62,406.30 L 242.53,406.95 L 242.47,407.05 L 242.70,407.75 L 242.87,408.17 L 243.51,409.37 L 243.87,410.02 L 244.82,411.57 L 246.52,414.11 L 247.13,414.99 L 248.25,416.69 L 248.78,417.51 L 249.67,418.98 L 250.08,419.66 L 250.63,420.73 L 250.99,421.70 L 250.99,422.03 L 251.38,422.78 L 252.32,423.70 L 252.50,423.81 L 253.12,424.45 L 253.46,424.82 L 254.32,425.89 L 257.26,430.02 L 257.55,430.46 L 258.58,431.75 L 259.17,432.47 L 260.75,434.27 L 261.60,435.22 L 263.65,437.45 L 264.72,438.61 L 267.16,441.19 L 268.42,442.51 L 271.18,445.37 L 272.59,446.82 L 275.58,449.87 L 278.61,452.95 L 285.07,459.39 L 288.32,462.60 L 294.72,468.83 L 296.29,470.34 L 299.31,473.23 L 300.80,474.65 L 303.60,477.28 L 304.96,478.55 L 307.46,480.84 L 308.66,481.94 L 310.78,483.82 L 311.78,484.70 L 313.44,486.09 L 315.33,487.53 L 316.93,488.62 L 320.53,490.97 L 321.39,491.53 L 322.95,492.52 L 324.83,493.67 L 325.84,494.27 L 327.84,495.59 L 328.30,495.90 L 329.08,496.46 L 329.92,497.13 L 330.12,497.30 L 330.93,497.84 L 331.39,498.13 L 332.60,498.82 L 337.04,501.10 L 338.60,501.84 L 341.62,503.48 L 342.31,503.87 L 343.45,504.58 L 344.64,505.43 L 344.80,505.56 L 345.35,505.93 L 345.66,506.13 L 346.47,506.60 L 347.34,507.10 L 349.72,508.33 L 350.98,508.97 L 353.91,510.40 L 355.42,511.12 L 358.60,512.59 L 360.20,513.32 L 363.32,514.71 L 364.85,515.38 L 367.60,516.53 L 368.90,517.06 L 370.98,517.84 L 371.44,518.00 L 372.19,518.24 L 373.00,518.43 L 373.12,518.44 L 373.00,518.69 L 373.00,519.00 L 373.25,519.52 L 373.66,519.70 L 374.63,519.99 L 375.25,519.98 L 376.31,519.94 L 376.71,519.85 L 376.76,519.78 L 376.78,519.61 L 376.73,519.57 L 376.79,519.59 L 382.39,521.90 L 383.34,522.34 L 385.11,523.09 L 385.96,523.44 L 387.40,523.98 L 388.07,524.22 L 389.04,524.50 L 389.77,524.56 L 389.84,524.50 L 390.24,524.49 L 390.48,524.51 L 391.17,524.66 L 393.87,525.59 L 394.49,525.85 L 396.10,526.42 L 396.96,526.71 L 398.96,527.31 L 400.00,527.62 L 402.32,528.25 L 403.52,528.56 L 406.07,529.19 L 408.67,529.81 L 414.24,530.99 L 422.50,532.47 L 423.54,532.63 L 425.33,532.91 L 426.19,533.04 L 427.68,533.27 L 429.10,533.49 L 431.30,533.82 L 437.00,534.57 L 439.30,534.85 L 444.62,535.29 L 447.38,535.49 L 453.37,535.78 L 459.47,536.02 L 472.29,536.05 L 475.43,536.02 L 481.47,535.86 L 484.41,535.75 L 489.81,535.44 L 491.10,535.35 L 493.51,535.15 L 494.68,535.05 L 496.81,534.81 L 497.84,534.69 L 499.67,534.42 L 502.00,533.97 L 503.24,533.69 L 506.21,533.13 L 506.93,532.99 L 508.29,532.77 L 510.00,532.53 L 511.04,532.41 L 512.86,532.18 L 513.73,532.08 L 515.28,531.87 L 516.77,531.66 L 519.23,531.25 L 520.42,531.03 L 522.70,530.51 L 526.50,529.51 L 527.76,529.16 L 529.84,528.59 L 530.82,528.32 L 532.42,527.91 L 533.16,527.72 L 534.34,527.46 L 534.88,527.34 L 535.72,527.22 L 536.49,527.12 L 537.34,527.32 L 538.18,528.11 L 538.39,528.40 L 538.66,528.77 L 538.78,528.91 L 538.90,528.98 L 538.94,528.98 L 538.93,528.75 L 538.76,528.07 L 538.69,527.81 L 539.24,527.17 L 539.44,527.01 L 540.03,526.63 L 540.36,526.43 L 541.22,526.00 L 541.69,525.78 L 542.83,525.28 L 543.44,525.02 L 544.89,524.45 L 545.65,524.16 L 547.42,523.51 L 550.44,522.44 L 553.76,521.29 L 560.43,518.82 L 561.97,518.23 L 564.61,517.20 L 565.21,516.96 L 566.25,516.54 L 567.50,516.00 L 568.99,515.33 L 571.50,514.20 L 572.68,513.67 L 574.63,512.80 L 575.55,512.40 L 577.01,511.75 L 577.69,511.45 L 578.74,510.99 L 579.23,510.78 L 579.94,510.49 L 580.27,510.35 L 580.72,510.18 L 581.45,510.00 L 581.49,510.00 L 581.78,509.87 L 581.95,509.78 L 582.48,509.48 L 583.06,509.14 L 584.86,508.00 L 585.87,507.37 L 588.42,505.70 L 589.78,504.81 L 592.95,502.69 L 594.61,501.59 L 598.27,499.12 L 600.15,497.85 L 604.18,495.10 L 617.00,486.25 L 618.73,485.04 L 621.85,482.94 L 623.35,481.94 L 626.02,480.24 L 627.30,479.44 L 629.55,478.13 L 630.63,477.53 L 632.50,476.60 L 633.39,476.18 L 634.90,475.62 L 635.61,475.39 L 636.79,475.18 L 637.34,475.12 L 638.21,475.25 L 639.21,475.81 L 639.54,476.14 L 639.60,477.05 L 639.54,477.55 L 638.87,478.74 L 638.45,479.37 L 637.09,480.76 L 634.35,483.00 L 633.40,483.69 L 631.47,485.16 L 631.02,485.51 L 630.25,486.13 L 629.40,486.86 L 628.59,487.61 L 626.57,489.29 L 625.50,490.15 L 622.97,492.05 L 621.65,493.03 L 618.62,495.16 L 617.04,496.26 L 613.51,498.61 L 611.68,499.82 L 607.64,502.40 L 605.56,503.72 L 601.01,506.52 L 598.68,507.95 L 593.63,510.98 L 585.50,515.78 L 583.03,517.23 L 577.38,520.13 L 574.45,521.57 L 568.06,524.42 L 564.79,525.84 L 557.88,528.56 L 554.38,529.91 L 547.16,532.44 L 543.53,533.67 L 536.23,535.93 L 532.59,537.02 L 525.43,538.93 L 521.88,539.83 L 515.08,541.32 L 505.50,543.00 L 503.30,543.31 L 499.12,543.95 L 498.16,544.10 L 496.60,544.35 L 495.00,544.64 L 494.83,544.67 L 494.07,544.75 L 493.63,544.79 L 492.37,544.87 L 491.69,544.91 L 490.01,544.99 L 489.12,545.03 L 487.07,545.12 L 486.00,545.16 L 483.65,545.24 L 482.44,545.28 L 479.85,545.36 L 471.50,545.56 L 468.72,545.61 L 463.57,545.65 L 461.04,545.65 L 456.30,545.58 L 451.63,545.48 L 443.00,544.91 L 438.71,544.55 L 430.07,543.42 L 427.86,543.10 L 423.27,542.33 L 416.00,540.99 L 414.56,540.71 L 411.73,540.17 L 410.34,539.91 L 407.85,539.44 L 406.67,539.22 L 404.80,538.88 L 403.00,538.57 L 402.31,538.47 L 400.35,538.00 L 397.50,537.16 L 397.09,537.02 L 395.98,536.66 L 395.39,536.48 L 394.06,536.08 L 390.00,534.94 L 389.38,534.78 L 387.76,534.29 L 386.90,534.03 L 384.98,533.41 L 379.24,531.38 L 377.52,530.72 L 374.41,529.70 L 373.71,529.48 L 372.62,529.19 L 371.58,529.00 L 371.42,529.00 L 370.77,528.83 L 370.39,528.72 L 369.34,528.34 L 368.77,528.13 L 367.38,527.58 L 366.65,527.28 L 364.98,526.58 L 363.25,525.85 L 359.22,524.07 L 357.14,523.14 L 352.79,521.13 L 350.61,520.12 L 346.42,518.12 L 344.39,517.14 L 340.85,515.37 L 340.03,514.95 L 338.59,514.20 L 337.91,513.84 L 336.80,513.22 L 336.29,512.93 L 335.57,512.47 L 335.00,512.01 L 334.93,511.90 L 334.48,511.55 L 334.20,511.36 L 333.42,510.86 L 330.31,509.14 L 329.10,508.53 L 326.50,507.07 L 325.20,506.32 L 322.67,504.75 L 321.44,503.96 L 319.33,502.50 L 317.00,500.66 L 316.59,500.28 L 315.21,499.30 L 313.02,497.98 L 312.68,497.80 L 311.70,497.19 L 311.17,496.86 L 309.92,496.01 L 305.96,493.09 L 304.70,492.10 L 301.89,489.97 L 301.22,489.46 L 300.01,488.56 L 298.56,487.50 L 297.78,486.95 L 295.80,485.43 L 293.12,483.27 L 292.40,482.65 L 290.98,481.45 L 290.65,481.17 L 290.10,480.71 L 289.50,480.21 L 285.76,477.16 L 278.01,470.49 L 276.15,468.87 L 272.77,465.84 L 271.96,465.11 L 270.48,463.75 L 268.50,461.89 L 266.80,460.26 L 263.52,457.29 L 261.93,455.87 L 259.11,453.50 L 258.45,452.97 L 257.27,452.05 L 256.71,451.62 L 255.75,450.94 L 255.31,450.64 L 254.62,450.24 L 253.93,450.00 L 253.72,450.00 L 252.96,449.59 L 251.74,448.60 L 251.48,448.34 L 250.51,447.65 L 249.96,447.28 L 248.50,446.42 L 247.71,445.97 L 245.88,444.99 L 244.92,444.49 L 242.85,443.45 L 240.73,442.42 L 236.30,440.44 L 235.22,439.98 L 233.16,439.15 L 230.36,438.12 L 225.60,436.52 L 216.45,433.95 L 211.92,432.77 L 203.11,431.04 L 198.72,430.27 L 190.05,429.33 L 177.00,428.77 L 175.45,428.78 L 172.73,428.79 L 171.43,428.80 L 169.14,428.85 L 168.04,428.87 L 166.09,428.95 L 165.15,428.99 L 163.44,429.11 L 161.78,429.24 L 158.77,429.65 L 154.00,430.55 L 153.31,430.70 L 151.65,430.92 L 149.50,431.06 L 149.05,431.06 L 147.43,431.36 L 146.52,431.56 L 144.14,432.20 L 142.88,432.56 L 139.96,433.48 L 138.46,433.96 L 135.23,435.06 L 131.97,436.19 L 125.45,438.70 L 123.90,439.32 L 121.08,440.52 L 117.50,442.18 L 114.95,443.47 L 109.55,446.53 L 106.85,448.11 L 101.58,451.47 L 99.02,453.15 L 94.45,456.45 L 93.38,457.25 L 91.46,458.78 L 89.00,460.91 L 87.76,462.06 L 85.07,464.27 L 84.42,464.77 L 83.28,465.61 L 81.92,466.48 L 81.05,466.95 L 79.06,468.58 L 78.04,469.49 L 75.86,471.86 L 74.75,473.11 L 72.48,476.04 L 71.34,477.56 L 69.10,480.87 L 68.00,482.56 L 65.91,486.07 L 64.90,487.84 L 63.07,491.38 L 62.21,493.14 L 60.77,496.52 L 59.18,501.23 L 58.17,504.96 L 67.36,509.31 L 69.38,510.26 L 72.87,512.18 L 74.52,513.15 L 77.32,515.18 L 78.65,516.21 L 80.84,518.46 L 81.86,519.62 L 83.49,522.20 L 84.25,523.54 L 85.39,526.55 L 85.90,528.13 L 86.61,531.70 L 86.92,533.56 L 87.27,537.79 L 87.44,545.00 L 87.43,546.69 L 87.33,549.86 L 87.27,551.41 L 87.05,554.36 L 86.79,557.29 L 85.82,562.96 L 85.53,564.40 L 84.81,567.36 L 84.42,568.87 L 83.50,572.05 L 83.00,573.68 L 81.84,577.18 L 79.82,582.90 L 79.48,583.83 L 78.91,585.46 L 78.64,586.25 L 78.20,587.67 L 77.79,589.06 L 77.29,591.61 L 77.08,592.91 L 76.90,595.84 L 76.87,596.64 L 76.84,598.43 L 76.85,601.53 L 76.87,603.95 L 77.21,608.52 L 77.43,610.74 L 78.11,614.67 L 78.30,615.60 L 78.73,617.28 L 78.95,618.08 L 79.44,619.48 L 79.69,620.14 L 80.23,621.23 L 81.10,622.45 L 81.44,622.81 L 81.82,623.92 L 81.96,624.50 L 81.97,625.75 L 81.93,626.35 L 81.82,626.67 L 81.78,626.61 L 81.44,626.39 L 81.19,626.30 L 80.01,626.01 L 79.25,626.02 L 77.99,626.07 L 77.48,626.15 L 77.38,626.23 L 77.30,626.40 L 77.40,626.53 L 77.42,626.55 L 76.49,626.12 L 75.33,625.59 L 72.56,624.26 L 71.13,623.56 L 68.00,622.00 L 65.30,620.64 L 60.54,617.86 L 58.25,616.44 L 54.13,613.41 L 52.12,611.84 L 48.40,608.37 L 43.00,602.46 L 42.34,601.66 L 40.98,599.77 L 40.29,598.79 L 38.91,596.56 L 37.54,594.26 L 34.85,588.92 L 33.53,586.17 L 31.16,580.31 L 28.23,571.50 L 27.47,568.80 L 26.44,563.33 L 26.01,560.60 L 25.62,555.17 L 25.51,552.46 L 25.75,547.15 L 25.95,544.52 L 26.79,539.44 L 27.29,536.94 L 28.72,532.20 L 29.50,529.88 L 31.49,525.57 L 32.55,523.47 L 35.09,519.70 L 39.47,514.76 L 40.44,513.87 L 41.99,512.73 L 42.34,512.50 L 42.94,512.21 L 43.22,512.09 L 43.67,512.01 L 43.87,512.00 L 44.15,512.14 L 44.27,512.24 L 44.38,512.60 L 44.41,512.81 L 44.33,513.40 L 43.99,514.52 L 43.86,514.86 L 43.59,516.00 L 43.45,516.63 L 43.19,518.18 L 42.62,523.45 L 42.53,524.70 L 42.48,526.60 L 42.47,527.45 L 42.59,528.66 L 42.67,529.19 L 42.98,529.86 L 43.68,530.43 L 43.89,530.51 L 43.52,530.37 L 42.65,530.35 L 42.45,530.58 L 42.38,530.78 L 42.25,531.26 L 42.20,531.61 L 42.13,532.39 L 42.12,532.92 L 42.10,534.07 L 42.11,534.81 L 42.14,536.38 L 42.16,537.34 L 42.23,539.39 L 42.28,540.62 L 42.48,545.00 L 42.64,547.72 L 42.73,548.89 L 42.92,551.07 L 43.01,551.86 L 43.10,552.60 L 43.14,552.88 L 43.22,553.36 L 43.26,553.50 L 43.70,555.00 L 43.90,555.72 L 43.92,555.81 L 44.08,555.90 L 44.27,555.85 L 44.73,555.67 L 45.00,555.50 L 45.17,555.13 L 45.28,554.64 L 45.33,554.28 L 45.53,552.59 L 45.62,551.43 L 45.78,548.92 L 45.84,547.49 L 45.96,544.54 L 45.99,543.03 L 46.05,540.01 L 46.05,538.60 L 46.05,535.87 L 46.01,534.75 L 45.93,532.68 L 45.86,532.03 L 45.78,531.44 L 45.74,531.27 L 45.64,531.00 L 45.58,531.00 L 44.80,530.81 L 44.53,530.72 L 45.30,530.88 L 45.73,530.90 L 46.29,530.46 L 46.54,530.14 L 46.89,528.86 L 46.97,528.48 L 47.12,527.51 L 47.34,525.75 L 47.48,524.55 L 48.03,521.76 L 48.35,520.31 L 49.21,517.13 L 49.67,515.50 L 50.78,512.08 L 51.36,510.35 L 52.66,506.83 L 53.99,503.32 L 57.01,496.64 L 57.77,495.05 L 59.31,492.14 L 61.59,488.33 L 62.06,487.62 L 62.91,486.27 L 63.32,485.62 L 64.00,484.50 L 64.31,483.97 L 64.73,483.19 L 65.00,482.54 L 65.00,482.36 L 65.38,481.59 L 65.63,481.14 L 66.45,479.93 L 66.90,479.28 L 68.06,477.73 L 68.67,476.93 L 70.08,475.16 L 71.53,473.36 L 74.81,469.56 L 79.56,464.48 L 80.23,463.81 L 81.77,462.40 L 82.57,461.68 L 84.35,460.19 L 86.17,458.68 L 90.40,455.49 L 92.58,453.88 L 97.31,450.63 L 99.72,449.01 L 104.70,445.85 L 107.20,444.30 L 112.16,441.41 L 114.62,440.01 L 119.30,437.54 L 121.58,436.37 L 125.71,434.50 L 126.69,434.07 L 128.52,433.36 L 131.00,432.53 L 131.07,432.51 L 131.50,432.33 L 131.76,432.23 L 132.49,431.92 L 135.38,430.68 L 135.87,430.47 L 137.28,429.97 L 138.04,429.70 L 139.88,429.13 L 141.82,428.54 L 146.44,427.29 L 148.79,426.68 L 153.42,425.60 L 154.52,425.35 L 156.56,424.94 L 159.19,424.48 L 160.10,424.34 L 162.26,423.97 L 165.00,423.43 L 165.17,423.39 L 165.83,423.31 L 166.21,423.27 L 167.23,423.19 L 167.79,423.15 L 169.14,423.06 L 169.85,423.02 L 171.47,422.94 L 173.14,422.85 L 177.09,422.71 L 183.50,422.52 L 185.11,422.49 L 187.97,422.45 L 189.36,422.43 L 191.85,422.43 L 194.26,422.45 L 198.31,422.63 L 200.25,422.75 L 203.86,423.17 L 209.50,424.12 L 210.88,424.38 L 213.50,424.89 L 214.77,425.14 L 217.00,425.57 L 218.05,425.77 L 219.63,426.07 L 221.00,426.33 L 221.91,426.49 L 224.37,427.14 L 225.69,427.51 L 228.74,428.49 L 230.31,429.01 L 233.68,430.24 L 238.77,432.25 L 239.77,432.67 L 241.64,433.39 L 242.53,433.73 L 244.06,434.25 L 244.76,434.48 L 245.78,434.74 L 246.55,434.78 L 246.59,434.75 L 246.52,434.45 L 246.47,434.27 L 246.23,433.71 L 245.96,433.08 L 244.99,431.16 L 244.44,430.11 L 243.02,427.52 L 240.51,423.17 L 239.61,421.65 L 237.92,418.72 L 237.10,417.31 L 235.70,414.81 L 235.04,413.64 L 234.08,411.86 L 233.87,411.47 L 233.57,410.87 L 233.31,410.29 L 233.12,409.80 L 232.67,408.88 L 232.07,408.00 L 232.00,407.94 L 231.60,407.26 L 231.36,406.84 L 230.68,405.55 L 230.30,404.84 L 229.40,403.07 L 228.93,402.14 L 227.87,400.02 L 226.78,397.83 L 224.43,392.97 L 221.15,386.00 L 220.88,385.39 L 220.27,383.97 L 219.96,383.22 L 219.29,381.54 L 218.61,379.81 L 217.12,375.75 L 216.36,373.66 L 214.80,369.11 L 214.02,366.81 L 212.48,362.11 L 211.73,359.76 L 210.33,355.21 L 209.65,352.98 L 208.49,348.90 L 207.95,346.96 L 207.12,343.67 L 206.94,342.92 L 206.66,341.61 L 206.38,340.00 L 206.24,339.04 L 205.85,337.09 L 205.75,336.63 L 205.55,335.86 L 205.26,335.00 L 205.07,334.52 L 204.67,333.15 L 204.47,332.38 L 204.06,330.32 L 203.86,329.20 L 203.40,326.34 L 202.66,321.00 L 202.61,320.66 L 202.48,319.71 L 202.41,319.21 L 202.24,318.06 L 201.70,314.50 L 201.53,313.39 L 201.22,310.89 L 201.07,309.59 L 200.81,306.75 L 200.56,303.84 L 200.21,297.25 L 200.06,293.86 L 199.91,286.65 L 199.85,283.00 L 199.88,275.60 L 199.92,271.91 L 200.14,264.75 L 200.27,261.25 L 200.66,254.77 L 200.77,253.21 L 201.02,250.31 L 201.15,248.89 L 201.45,246.30 L 201.60,245.05 L 201.94,242.84 L 202.49,240.00 L 202.65,239.31 L 203.03,237.50 L 203.52,235.00 L 203.58,234.66 L 203.82,233.44 L 203.95,232.76 L 204.30,231.03 L 205.56,225.00 L 206.00,222.94 L 206.79,219.06 L 206.96,218.18 L 207.24,216.75 L 207.49,215.31 L 207.58,214.70 L 207.90,213.45 L 208.45,212.08 L 208.63,211.80 L 209.01,210.47 L 209.47,208.06 L 209.57,207.21 L 209.98,205.26 L 210.22,204.23 L 210.95,201.75 L 211.36,200.42 L 212.47,197.19 L 212.77,196.32 L 213.47,194.41 L 214.64,191.24 L 215.29,189.52 L 216.31,186.40 L 216.52,185.71 L 216.81,184.60 L 217.00,183.56 L 217.00,183.28 L 217.37,182.08 L 217.60,181.38 L 218.36,179.49 L 218.78,178.48 L 219.84,176.12 L 220.39,174.90 L 221.65,172.27 L 222.93,169.61 L 225.66,164.36 L 226.32,163.13 L 227.56,160.94 L 229.19,158.27 L 230.74,155.94 L 234.09,151.35 L 235.77,149.09 L 239.17,144.91 L 240.85,142.90 L 243.99,139.48 L 244.75,138.69 L 246.17,137.32 L 248.11,135.61 L 249.40,134.57 L 251.97,132.44 L 252.57,131.94 L 253.57,131.08 L 254.66,130.12 L 254.93,129.87 L 255.89,129.15 L 256.42,128.76 L 257.76,127.84 L 259.17,126.89 L 262.51,124.80 L 263.34,124.29 L 264.93,123.35 L 265.70,122.90 L 267.06,122.14 L 267.70,121.79 L 268.68,121.31 L 269.55,121.00 L 269.77,121.00 L 270.57,120.59 L 271.92,119.61 L 272.03,119.52 L 272.47,119.25 L 272.72,119.10 L 273.42,118.75 L 274.18,118.38 L 276.33,117.43 L 277.49,116.93 L 280.24,115.83 L 284.71,114.12 L 287.32,113.17 L 292.34,111.58 L 294.86,110.82 L 300.17,109.51 L 301.54,109.19 L 304.44,108.59 L 305.93,108.30 L 309.11,107.72 L 310.75,107.43 L 314.29,106.86 L 320.08,106.00 L 321.10,105.85 L 323.79,105.61 L 325.22,105.50 L 328.56,105.32 L 330.28,105.24 L 334.03,105.14 L 335.93,105.09 L 339.85,105.05 L 341.82,105.05 L 345.69,105.08 L 347.60,105.11 L 351.18,105.21 L 352.92,105.28 L 355.98,105.46 L 359.75,105.81 L 360.50,105.91 L 361.75,106.07 L 362.33,106.14 L 363.27,106.23 L 364.14,106.30 L 365.14,106.21 L 365.54,106.12 L 365.87,105.65 L 366.00,104.42 L 366.00,105.00 L 366.04,105.76 L 366.16,106.03 L 366.49,106.50 L 366.81,106.64 L 367.58,106.87 L 368.18,106.93 L 369.54,107.00 L 370.50,107.00 L 372.27,106.95 L 373.22,106.86 L 373.58,106.80 L 374.22,106.65 L 374.43,106.55 L 374.77,106.35 L 374.82,106.23 L 374.84,105.97 L 374.74,105.82 L 374.45,105.51 L 374.19,105.34 L 373.59,104.99 L 373.17,104.80 L 372.26,104.41 L 371.68,104.20 L 368.85,103.30 L 367.54,103.05 L 367.11,103.11 L 366.41,103.35 L 366.24,103.67 L 366.00,104.42 L 366.00,103.88 L 365.58,102.98 L 365.30,102.55 L 364.26,101.85 L 363.66,101.52 L 361.93,100.97 L 358.50,100.30 L 358.22,100.26 L 357.21,100.10 L 356.64,100.02 L 355.18,99.80 L 350.00,99.01 L 349.43,98.93 L 348.05,98.77 L 347.33,98.70 L 345.70,98.57 L 344.01,98.45 L 340.01,98.29 L 337.93,98.22 L 333.40,98.16 L 331.09,98.14 L 326.34,98.18 L 323.96,98.21 L 319.31,98.34 L 317.03,98.41 L 312.79,98.63 L 310.75,98.75 L 307.24,99.06 L 306.42,99.14 L 304.98,99.32 L 303.15,99.60 L 302.01,99.82 L 299.35,100.43 L 297.96,100.77 L 294.90,101.59 L 293.32,102.02 L 289.97,103.02 L 288.27,103.53 L 284.76,104.65 L 281.23,105.80 L 274.18,108.32 L 272.46,108.96 L 269.16,110.24 L 264.58,112.14 L 263.35,112.67 L 260.98,113.64 L 259.84,114.10 L 257.80,114.87 L 256.84,115.22 L 255.36,115.70 L 254.03,116.00 L 253.58,116.00 L 252.56,116.32 L 251.31,117.09 L 251.01,117.39 L 250.53,117.71 L 250.31,117.82 L 249.98,117.80 L 249.84,117.74 L 249.66,117.39 L 249.60,117.18 L 249.58,116.53 L 249.59,116.17 L 249.72,115.25 L 249.80,114.76 L 250.09,113.59 L 251.52,109.28 L 252.31,107.22 L 253.92,103.21 L 254.71,101.26 L 256.19,97.80 L 256.54,96.99 L 257.19,95.55 L 257.50,94.86 L 258.06,93.69 L 258.32,93.15 L 258.75,92.31 L 259.24,91.50 L 261.20,88.86 L 265.46,83.64 L 267.60,81.09 L 271.83,76.49 L 272.86,75.40 L 274.83,73.43 L 275.79,72.49 L 277.56,70.87 L 278.42,70.11 L 279.94,68.89 L 281.86,67.62 L 282.09,67.50 L 282.89,67.02 L 283.34,66.75 L 284.49,66.04 L 288.50,63.48 L 289.62,62.75 L 292.28,61.27 L 293.67,60.52 L 296.78,59.03 L 298.39,58.28 L 301.84,56.83 L 303.60,56.11 L 307.29,54.73 L 311.00,53.38 L 318.64,51.09 L 320.53,50.57 L 324.22,49.67 L 329.50,48.60 L 330.86,48.37 L 334.23,48.01 L 336.00,47.85 L 339.99,47.63 L 342.03,47.55 L 346.38,47.47 L 348.58,47.45 L 353.03,47.51 L 355.25,47.56 L 359.56,47.75 L 361.67,47.86 L 365.57,48.17 L 367.44,48.34 L 370.68,48.77 L 374.50,49.54 L 376.15,50.01 L 379.61,50.89 L 380.42,51.09 L 381.84,51.42 L 383.47,51.76 L 383.81,51.82 L 384.73,52.09 L 385.22,52.25 L 386.42,52.70 L 387.04,52.95 L 388.47,53.56 L 389.22,53.89 L 390.85,54.64 L 392.53,55.43 L 396.34,57.34 L 398.30,58.34 L 402.44,60.56 L 404.53,61.69 L 408.73,64.06 L 410.80,65.25 L 414.76,67.61 L 416.67,68.78 L 420.09,70.97 L 424.29,73.91 L 425.56,74.86 L 428.37,77.11 L 429.80,78.26 L 432.67,80.68 L 434.08,81.88 L 436.68,84.18 L 439.89,87.18 L 440.81,88.10 L 442.80,90.16 L 443.80,91.22 L 445.85,93.46 L 447.89,95.72 L 451.73,100.22 L 452.63,101.30 L 454.23,103.29 L 454.98,104.25 L 456.21,105.90 L 456.77,106.67 L 457.53,107.84 L 458.00,108.92 L 458.00,109.22 L 458.26,109.68 L 458.87,110.00 L 458.94,110.00 L 459.21,110.30 L 459.37,110.50 L 459.81,111.16 L 460.05,111.53 L 460.64,112.49 L 460.94,113.01 L 461.65,114.23 L 462.38,115.51 L 464.08,118.63 L 464.95,120.25 L 466.79,123.76 L 467.70,125.52 L 469.47,129.02 L 470.33,130.72 L 471.82,133.81 L 472.17,134.53 L 472.77,135.84 L 473.06,136.47 L 473.52,137.54 L 473.73,138.04 L 474.03,138.82 L 474.26,139.61 L 474.35,140.13 L 474.70,141.31 L 475.33,142.74 L 475.53,143.07 L 476.03,144.40 L 476.29,145.16 L 476.87,147.20 L 477.16,148.28 L 477.77,150.81 L 478.07,152.11 L 478.66,154.90 L 479.24,157.71 L 480.17,163.21 L 480.37,164.50 L 480.65,166.77 L 480.86,169.50 L 480.91,172.24 L 480.94,177.40 L 480.94,179.93 L 480.86,184.67 L 480.81,186.99 L 480.62,191.30 L 480.51,193.40 L 480.21,197.27 L 480.05,199.16 L 479.65,202.60 L 479.43,204.26 L 478.92,207.25 L 478.65,208.70 L 478.03,211.24 L 476.98,214.56 L 476.72,215.23 L 476.32,216.00 L 476.22,216.13 L 476.00,216.20 L 475.89,216.21 L 475.62,216.00 L 475.48,215.86 L 475.13,215.35 L 474.94,215.05 L 474.48,214.19 L 474.23,213.71 L 473.62,212.47 L 472.51,210.15 L 472.14,209.39 L 471.50,208.10 L 471.19,207.48 L 470.65,206.46 L 470.12,205.51 L 469.24,204.29 L 468.81,203.78 L 467.97,203.26 L 466.54,203.00 L 465.97,203.00 M 447.08,260.46 L 447.04,260.37 L 447.03,260.23 M 455.04,195.04 L 455.36,195.15 L 456.22,195.71 L 456.68,196.04 L 457.83,197.05 L 459.92,199.04 L 461.04,200.15 L 462.80,202.21 L 463.17,202.68 L 463.68,203.43 L 464.00,204.18 L 464.00,204.48 L 464.41,205.28 L 465.39,206.39 L 465.59,206.55 L 466.10,207.28 L 466.37,207.69 L 466.97,208.84 L 467.58,210.07 L 468.90,213.31 L 469.54,214.98 L 470.65,218.41 L 470.90,219.23 L 471.30,220.76 L 471.69,222.75 L 471.79,223.38 L 471.70,224.72 L 471.61,225.43 L 471.10,227.10 L 470.78,228.00 L 469.74,230.24 L 469.45,230.85 L 468.75,232.21 L 467.52,234.51 L 466.25,236.85 L 463.60,241.25 L 462.98,242.25 L 461.91,243.87 L 460.69,245.51 L 460.39,245.85 L 459.49,246.99 L 458.99,247.61 L 457.82,249.17 L 454.00,254.46 L 453.47,255.22 L 452.48,256.55 L 452.00,257.18 L 451.80,257.42 L 451.86,257.34 L 452.91,255.62 L 453.31,254.84 L 453.37,254.61 L 453.39,254.25 L 453.26,254.20 L 452.90,254.21 L 452.59,254.33 L 451.81,254.53 L 451.48,254.46 L 451.41,254.30 L 451.32,253.91 L 451.36,253.57 L 451.48,252.78 L 451.61,252.22 L 451.72,251.32 L 451.60,251.19 L 451.43,251.37 L 451.03,251.87 L 450.73,252.36 L 450.06,253.50 L 449.62,254.30 L 447.77,257.97 L 447.34,258.95 L 447.21,259.31 L 447.01,259.89 L 447.00,259.72 L 447.00,259.37 L 447.46,258.16 L 448.57,256.21 L 448.78,255.90 L 449.38,254.77 L 449.70,254.14 L 450.44,252.51 L 452.76,246.74 L 453.35,245.10 L 454.17,242.41 L 454.53,241.08 L 454.97,238.26 L 455.06,237.50 L 455.20,235.78 L 455.26,234.88 L 455.34,232.79 L 455.37,231.69 L 455.41,229.09 L 455.44,224.50 L 455.45,222.44 L 455.38,218.14 L 455.33,216.01 L 455.16,211.93 L 455.07,209.96 L 454.82,206.56 L 454.76,205.78 L 454.62,204.42 L 454.40,202.76 L 454.21,201.60 L 453.95,199.67 L 453.84,198.77 L 453.75,197.37 L 453.73,196.74 L 453.84,195.85 L 453.92,195.47 L 454.25,195.09 L 454.45,194.95 Z" fill="rgba(65,112,57,1)"/>
<path d="M 374.71,518.30 L 376.00,519.00 L 376.30,519.20 L 376.65,519.48 L 376.78,519.61 L 376.76,519.78 L 376.71,519.85 L 376.31,519.94 L 375.25,519.98 L 374.63,519.99 L 373.66,519.70 L 373.25,519.52 L 373.00,519.00 L 373.00,518.69 L 373.20,518.30 L 373.33,518.14 L 373.77,518.06 L 374.03,518.06 M 447.17,260.67 L 447.43,260.82 L 448.05,261.01 L 448.22,260.99 L 448.13,261.04 L 447.45,261.02 L 447.17,260.91 L 447.02,260.14 M 451.72,251.32 L 451.61,252.22 L 451.48,252.78 L 451.36,253.57 L 451.32,253.91 L 451.41,254.30 L 451.48,254.46 L 451.81,254.53 L 452.59,254.33 L 452.90,254.21 L 453.26,254.20 L 453.39,254.25 L 453.37,254.61 L 453.31,254.84 L 452.91,255.62 L 451.86,257.34 L 451.31,258.19 L 450.26,259.40 L 450.23,258.51 L 449.82,257.62 L 449.46,257.29 L 448.81,256.78 L 448.47,256.63 L 448.44,256.63 L 449.62,254.30 L 450.06,253.50 L 450.73,252.36 L 451.03,251.87 L 451.43,251.37 L 451.60,251.19 Z" fill="rgba(92,128,87,1)"/>
<path d="M 972.41,317.12 L 973.86,317.81 L 975.73,319.70 L 976.11,320.30 L 976.67,321.90 L 976.79,322.39 L 976.99,323.61 L 977.08,324.28 L 977.24,325.98 L 977.31,326.90 L 977.42,329.20 L 977.47,330.44 L 977.55,333.47 L 977.59,335.08 L 977.65,338.97 L 977.73,345.90 L 977.75,347.48 L 977.79,350.45 L 977.81,351.89 L 977.86,354.59 L 977.91,357.22 L 978.06,361.75 L 978.14,363.91 L 978.36,367.61 L 978.48,369.37 L 978.79,372.38 L 978.96,373.81 L 979.37,376.28 L 979.59,377.45 L 980.13,379.52 L 982.27,384.92 L 982.61,385.57 L 983.22,386.67 L 983.52,387.18 L 984.08,388.01 L 984.35,388.39 L 984.85,388.96 L 985.09,389.21 L 985.53,389.51 L 985.96,389.75 L 986.67,389.44 L 987.51,387.81 L 987.60,387.49 L 988.04,386.36 L 988.28,385.73 L 988.96,384.12 L 991.50,378.50 L 993.11,375.10 L 996.03,368.72 L 997.44,365.61 L 999.92,359.92 L 1001.10,357.17 L 1003.09,352.29 L 1003.56,351.12 L 1004.39,348.97 L 1005.47,346.00 L 1006.36,343.46 L 1008.50,338.41 L 1009.61,335.94 L 1011.94,331.43 L 1012.52,330.36 L 1013.66,328.43 L 1014.23,327.50 L 1015.31,325.90 L 1015.84,325.15 L 1016.83,323.95 L 1018.16,322.69 L 1019.02,322.06 L 1020.71,321.43 L 1021.54,321.21 L 1023.14,321.39 L 1023.92,321.57 L 1025.36,322.54 L 1027.26,324.86 L 1027.64,325.51 L 1028.25,326.63 L 1028.52,327.18 L 1028.83,328.30 L 1028.94,328.89 L 1028.88,330.30 L 1028.79,331.06 L 1028.27,333.03 L 1028.10,333.57 L 1027.67,334.80 L 1027.44,335.44 L 1026.87,336.90 L 1026.57,337.67 L 1025.84,339.40 L 1025.46,340.30 L 1024.57,342.33 L 1024.11,343.39 L 1023.04,345.76 L 1022.49,346.99 L 1021.24,349.73 L 1020.59,351.15 L 1019.15,354.29 L 1016.75,359.50 L 1015.93,361.29 L 1013.95,365.53 L 1012.93,367.72 L 1010.75,372.35 L 1009.66,374.66 L 1007.54,379.12 L 1004.73,385.00 L 1003.90,386.72 L 1002.05,390.57 L 1001.12,392.52 L 999.23,396.48 L 998.30,398.43 L 996.59,402.04 L 996.18,402.90 L 995.45,404.47 L 994.48,406.54 L 993.86,407.87 L 992.18,411.06 L 991.28,412.73 L 989.16,416.42 L 986.97,420.18 L 981.92,428.17 L 980.65,430.12 L 978.16,433.84 L 976.93,435.65 L 974.62,438.89 L 973.50,440.43 L 971.54,442.95 L 971.08,443.52 L 970.24,444.49 L 969.15,445.66 L 967.28,447.49 L 963.18,450.77 L 961.10,452.33 L 956.84,454.94 L 954.72,456.14 L 950.62,457.89 L 949.61,458.27 L 947.69,458.83 L 944.98,459.36 L 944.36,459.43 L 942.80,459.47 L 941.99,459.47 L 940.20,459.38 L 938.39,459.25 L 935.00,458.65 L 933.28,458.26 L 930.31,457.33 L 928.89,456.85 L 926.48,455.71 L 925.34,455.12 L 923.43,453.74 L 921.09,451.39 L 920.44,450.56 L 919.62,449.19 L 919.29,448.54 L 919.11,447.41 L 919.11,446.85 L 919.57,445.77 L 920.97,444.03 L 921.46,443.54 L 922.19,442.93 L 922.56,442.70 L 923.36,442.64 L 923.81,442.68 L 925.14,443.21 L 925.52,443.38 L 926.47,443.83 L 928.20,444.69 L 929.80,445.50 L 933.24,446.56 L 934.99,447.00 L 938.51,447.34 L 940.25,447.41 L 943.55,447.00 L 947.94,445.54 L 948.52,445.24 L 949.84,444.36 L 950.53,443.88 L 952.02,442.69 L 953.53,441.44 L 956.77,438.29 L 958.39,436.64 L 961.45,433.10 L 965.28,427.90 L 965.84,427.03 L 967.23,424.76 L 967.97,423.55 L 969.61,420.80 L 971.29,417.97 L 974.81,411.91 L 975.65,410.45 L 977.20,407.72 L 977.94,406.42 L 979.17,404.19 L 979.73,403.17 L 980.51,401.69 L 980.67,401.38 L 980.87,400.94 L 981.00,400.58 L 981.00,400.42 L 980.59,400.17 L 979.60,400.00 L 979.19,400.00 L 978.17,399.45 L 977.63,399.10 L 976.42,397.96 L 975.80,397.34 L 974.51,395.77 L 973.87,394.95 L 972.60,393.10 L 971.36,391.22 L 969.39,387.29 L 968.98,386.35 L 968.40,384.62 L 968.02,382.40 L 968.02,381.83 L 967.56,380.02 L 966.47,377.24 L 966.18,376.66 L 965.66,374.88 L 965.40,373.91 L 964.95,371.45 L 964.73,370.16 L 964.36,367.20 L 964.19,365.68 L 963.92,362.41 L 963.68,359.10 L 963.55,352.28 L 963.55,350.62 L 963.65,347.48 L 963.98,343.22 L 964.12,342.02 L 964.37,339.30 L 964.49,337.92 L 964.69,335.08 L 964.78,333.68 L 964.91,331.06 L 964.99,327.75 L 964.99,326.40 L 965.08,324.33 L 965.15,323.38 L 965.40,321.95 L 965.55,321.29 L 966.01,320.28 L 967.00,319.00 L 967.72,318.28 L 969.27,317.44 L 970.06,317.12 L 971.63,317.05 M 1290.65,251.08 L 1291.10,251.17 L 1292.00,251.55 L 1294.81,253.50 L 1295.85,254.36 L 1297.52,256.59 L 1298.30,257.79 L 1299.46,260.68 L 1299.97,262.21 L 1300.62,265.77 L 1300.88,267.64 L 1301.00,271.89 L 1301.00,274.11 L 1300.61,279.06 L 1300.35,281.62 L 1299.45,287.28 L 1298.93,290.20 L 1297.51,296.57 L 1294.80,306.96 L 1294.39,308.41 L 1293.44,311.84 L 1292.96,313.61 L 1291.97,317.34 L 1291.48,319.20 L 1290.55,322.79 L 1289.36,327.50 L 1289.03,328.88 L 1288.23,331.97 L 1287.82,333.55 L 1286.95,336.77 L 1286.51,338.35 L 1285.67,341.30 L 1284.56,345.00 L 1284.24,346.03 L 1283.48,348.86 L 1283.09,350.36 L 1282.27,353.82 L 1281.87,355.59 L 1281.09,359.25 L 1280.07,364.50 L 1279.48,367.80 L 1278.15,375.03 L 1277.82,376.75 L 1277.24,379.84 L 1276.52,383.50 L 1276.33,384.46 L 1275.93,387.09 L 1275.73,388.48 L 1275.36,391.67 L 1275.18,393.31 L 1274.88,396.68 L 1274.54,401.50 L 1274.44,403.55 L 1274.24,407.01 L 1274.14,408.63 L 1273.93,411.31 L 1273.82,412.56 L 1273.58,414.58 L 1273.45,415.52 L 1273.14,417.00 L 1272.98,417.68 L 1272.58,418.72 L 1272.37,419.20 L 1271.85,419.93 L 1269.72,421.49 L 1268.74,421.98 L 1267.24,422.58 L 1266.55,422.81 L 1265.46,422.89 L 1264.95,422.87 L 1264.04,422.42 L 1263.59,422.13 L 1262.62,421.14 L 1262.05,420.50 L 1261.09,418.78 L 1260.64,417.85 L 1259.95,415.61 L 1259.64,414.43 L 1259.24,411.74 L 1259.00,407.31 L 1259.00,406.72 L 1259.13,404.98 L 1259.22,404.02 L 1259.51,401.60 L 1259.68,400.31 L 1260.12,397.27 L 1260.36,395.68 L 1260.94,392.10 L 1261.24,390.25 L 1261.94,386.20 L 1262.31,384.12 L 1263.12,379.67 L 1263.53,377.40 L 1264.44,372.61 L 1264.90,370.18 L 1265.88,365.12 L 1266.88,360.02 L 1269.07,349.30 L 1270.19,343.91 L 1272.53,333.03 L 1273.70,327.63 L 1276.08,317.15 L 1276.67,314.58 L 1277.84,309.61 L 1279.57,302.48 L 1280.31,299.45 L 1281.67,293.74 L 1282.00,292.36 L 1282.59,289.77 L 1282.88,288.51 L 1283.39,286.20 L 1283.63,285.09 L 1284.05,283.14 L 1284.24,282.21 L 1284.54,280.68 L 1284.68,279.97 L 1284.85,278.93 L 1284.96,277.98 L 1284.94,277.38 L 1284.90,276.61 L 1284.87,276.30 L 1284.72,276.10 L 1284.63,276.07 L 1284.28,276.41 L 1283.45,277.50 L 1282.85,278.33 L 1281.52,280.23 L 1280.84,281.21 L 1279.41,283.34 L 1277.96,285.52 L 1275.03,290.13 L 1273.60,292.41 L 1271.08,296.63 L 1270.51,297.62 L 1269.52,299.38 L 1268.35,301.60 L 1267.95,302.41 L 1266.78,304.68 L 1266.14,305.89 L 1264.65,308.70 L 1259.85,317.50 L 1259.08,318.88 L 1257.30,322.08 L 1256.38,323.73 L 1254.47,327.16 L 1253.52,328.87 L 1251.72,332.13 L 1249.38,336.35 L 1247.94,338.97 L 1245.36,343.62 L 1244.12,345.86 L 1241.91,349.83 L 1240.84,351.73 L 1238.94,355.10 L 1238.02,356.72 L 1236.37,359.58 L 1235.58,360.96 L 1234.13,363.43 L 1233.43,364.61 L 1232.12,366.76 L 1228.50,372.50 L 1227.81,373.56 L 1226.19,376.04 L 1225.36,377.32 L 1223.60,380.02 L 1222.72,381.36 L 1221.04,383.94 L 1218.84,387.33 L 1217.75,389.01 L 1215.52,392.16 L 1214.40,393.69 L 1212.14,396.53 L 1211.00,397.91 L 1208.75,400.40 L 1207.62,401.59 L 1205.42,403.69 L 1204.33,404.69 L 1202.22,406.36 L 1201.19,407.14 L 1199.22,408.34 L 1198.26,408.88 L 1196.48,409.58 L 1194.06,410.00 L 1193.08,410.00 L 1190.87,409.24 L 1189.76,408.76 L 1187.53,407.21 L 1186.44,406.37 L 1184.50,404.28 L 1182.26,400.81 L 1181.64,399.49 L 1180.70,396.65 L 1180.28,395.17 L 1179.74,391.80 L 1179.53,390.02 L 1179.42,385.84 L 1179.42,384.73 L 1179.50,382.31 L 1179.56,381.07 L 1179.76,378.35 L 1179.88,376.95 L 1180.20,373.90 L 1180.37,372.33 L 1180.81,368.91 L 1181.05,367.15 L 1181.61,363.33 L 1181.91,361.37 L 1182.60,357.11 L 1182.96,354.92 L 1183.78,350.19 L 1184.21,347.76 L 1185.16,342.53 L 1185.65,339.84 L 1186.74,334.06 L 1188.53,324.74 L 1188.87,322.99 L 1189.49,319.61 L 1189.78,317.98 L 1190.27,315.08 L 1190.50,313.73 L 1190.80,311.64 L 1190.87,311.19 L 1190.95,310.48 L 1191.00,309.78 L 1191.00,309.30 L 1190.95,308.67 L 1190.92,308.41 L 1190.75,308.20 L 1190.65,308.15 L 1190.32,308.34 L 1189.57,309.04 L 1189.40,309.21 L 1188.93,309.80 L 1188.68,310.12 L 1188.07,310.98 L 1187.75,311.45 L 1187.01,312.56 L 1186.63,313.15 L 1185.77,314.49 L 1184.89,315.88 L 1182.85,319.24 L 1181.79,321.00 L 1179.49,324.94 L 1178.31,326.96 L 1175.86,331.26 L 1174.63,333.45 L 1172.15,337.92 L 1170.92,340.15 L 1168.54,344.58 L 1165.20,350.96 L 1164.62,352.09 L 1163.31,354.63 L 1162.64,355.93 L 1161.18,358.72 L 1159.70,361.56 L 1156.51,367.63 L 1154.90,370.67 L 1151.75,376.59 L 1150.99,378.03 L 1149.53,380.75 L 1147.51,384.50 L 1144.97,389.17 L 1139.63,399.15 L 1138.38,401.51 L 1136.17,405.66 L 1135.66,406.63 L 1134.76,408.35 L 1133.64,410.50 L 1132.83,412.07 L 1131.52,414.61 L 1130.91,415.79 L 1129.93,417.63 L 1129.48,418.48 L 1128.76,419.71 L 1128.43,420.26 L 1127.88,420.99 L 1127.62,421.30 L 1127.17,421.61 L 1126.95,421.72 L 1126.52,421.72 L 1124.88,420.98 L 1123.80,420.42 L 1121.99,419.18 L 1121.15,418.54 L 1119.83,417.17 L 1119.24,416.48 L 1118.47,415.05 L 1118.00,412.91 L 1118.00,412.49 L 1118.27,411.19 L 1118.45,410.47 L 1119.03,408.66 L 1119.36,407.71 L 1120.19,405.53 L 1120.64,404.41 L 1121.68,401.99 L 1122.75,399.53 L 1125.26,394.42 L 1125.90,393.17 L 1127.20,390.79 L 1129.12,387.50 L 1129.38,387.09 L 1129.99,386.06 L 1130.31,385.51 L 1131.04,384.25 L 1131.78,382.94 L 1133.50,379.84 L 1138.83,369.84 L 1139.65,368.24 L 1141.67,364.44 L 1142.72,362.49 L 1144.98,358.37 L 1146.12,356.32 L 1148.35,352.36 L 1151.36,347.17 L 1153.15,344.14 L 1156.84,337.68 L 1157.70,336.15 L 1159.18,333.46 L 1159.52,332.83 L 1160.11,331.72 L 1160.84,330.33 L 1161.02,329.97 L 1161.55,328.98 L 1161.84,328.44 L 1162.56,327.12 L 1162.94,326.42 L 1163.84,324.81 L 1164.31,323.98 L 1165.35,322.13 L 1166.42,320.24 L 1168.88,315.93 L 1170.14,313.72 L 1172.83,309.07 L 1174.18,306.73 L 1176.88,302.10 L 1178.21,299.82 L 1180.71,295.59 L 1181.91,293.55 L 1183.99,290.08 L 1184.48,289.28 L 1185.33,287.88 L 1186.41,286.14 L 1187.10,285.04 L 1189.04,282.34 L 1189.53,281.68 L 1190.50,280.43 L 1191.82,278.82 L 1192.76,277.74 L 1194.17,275.90 L 1194.81,275.01 L 1195.72,273.32 L 1196.13,272.46 L 1196.71,270.57 L 1197.39,267.15 L 1197.57,265.95 L 1198.30,263.22 L 1198.50,262.56 L 1198.92,261.36 L 1199.55,259.90 L 1199.87,259.29 L 1200.46,258.42 L 1200.77,258.04 L 1201.48,257.54 L 1201.87,257.33 L 1202.86,257.11 L 1204.85,257.00 L 1205.90,257.00 L 1207.70,257.41 L 1208.57,257.69 L 1210.12,258.75 L 1210.88,259.37 L 1212.32,261.19 L 1214.48,264.90 L 1214.82,265.55 L 1215.27,267.30 L 1215.47,268.25 L 1215.64,270.58 L 1215.69,271.83 L 1215.59,274.76 L 1215.50,276.30 L 1215.11,279.84 L 1214.88,281.68 L 1214.21,285.84 L 1213.84,287.99 L 1212.89,292.77 L 1212.37,295.24 L 1211.13,300.65 L 1208.95,309.50 L 1208.10,312.79 L 1206.43,319.89 L 1205.60,323.50 L 1204.01,330.98 L 1203.23,334.74 L 1201.77,342.28 L 1201.06,346.02 L 1199.79,353.29 L 1199.19,356.86 L 1198.16,363.53 L 1197.93,365.15 L 1197.51,368.21 L 1197.31,369.71 L 1196.97,372.52 L 1196.81,373.88 L 1196.56,376.38 L 1196.44,377.59 L 1196.28,379.75 L 1196.22,380.78 L 1196.16,382.55 L 1196.19,384.74 L 1196.24,385.49 L 1196.43,386.76 L 1196.54,387.35 L 1196.85,388.29 L 1197.01,388.72 L 1197.41,389.34 L 1197.62,389.60 L 1198.09,389.88 L 1198.34,389.97 L 1198.87,389.90 L 1199.15,389.83 L 1199.73,389.41 L 1200.02,389.15 L 1200.63,388.38 L 1201.56,386.81 L 1201.79,386.36 L 1202.66,384.89 L 1203.15,384.09 L 1204.42,382.12 L 1208.96,375.50 L 1209.33,374.99 L 1210.20,373.72 L 1210.66,373.04 L 1211.72,371.45 L 1212.27,370.62 L 1213.49,368.72 L 1214.13,367.74 L 1215.51,365.55 L 1216.23,364.42 L 1217.77,361.96 L 1218.56,360.70 L 1220.25,357.97 L 1221.11,356.58 L 1222.93,353.61 L 1223.86,352.10 L 1225.81,348.89 L 1227.79,345.63 L 1232.10,338.48 L 1234.30,334.81 L 1239.01,326.91 L 1241.40,322.88 L 1246.43,314.36 L 1254.26,301.00 L 1256.10,297.85 L 1259.48,292.08 L 1261.13,289.28 L 1264.14,284.20 L 1265.60,281.74 L 1268.26,277.31 L 1269.56,275.17 L 1271.91,271.35 L 1273.05,269.52 L 1275.12,266.28 L 1276.13,264.73 L 1277.95,262.03 L 1278.83,260.75 L 1280.43,258.57 L 1281.20,257.53 L 1282.61,255.82 L 1283.29,255.02 L 1284.54,253.75 L 1285.15,253.16 L 1286.27,252.29 L 1286.81,251.90 L 1287.83,251.39 L 1288.33,251.18 L 1289.27,251.01 L 1289.74,250.96 M 567.05,244.21 L 568.01,244.35 L 569.98,244.81 L 571.95,245.33 L 575.81,246.99 L 577.68,247.90 L 580.92,250.13 L 581.67,250.72 L 582.96,251.95 L 584.52,253.86 L 585.39,255.18 L 586.74,258.23 L 587.35,259.80 L 588.13,263.13 L 588.44,264.80 L 588.60,268.10 L 588.06,272.69 L 587.64,274.33 L 586.31,277.91 L 585.57,279.72 L 583.73,283.39 L 582.75,285.20 L 580.56,288.64 L 577.07,293.19 L 575.94,294.47 L 572.99,296.93 L 571.45,298.12 L 568.14,300.13 L 566.50,301.04 L 563.45,302.26 L 562.73,302.50 L 561.45,302.78 L 559.83,302.83 L 559.32,302.76 L 558.61,302.52 L 558.30,302.36 L 557.92,301.83 L 557.76,301.51 L 557.62,300.51 L 557.58,298.30 L 557.60,297.55 L 557.77,296.19 L 557.88,295.53 L 558.27,294.31 L 558.50,293.71 L 559.13,292.55 L 560.37,290.80 L 562.72,287.94 L 566.88,281.94 L 567.86,280.45 L 569.63,277.52 L 570.48,276.07 L 571.94,273.31 L 572.63,271.95 L 573.74,269.44 L 574.24,268.22 L 574.95,266.06 L 575.25,265.04 L 575.50,263.33 L 575.32,261.39 L 575.04,260.67 L 573.95,259.67 L 573.62,259.46 L 572.81,259.14 L 572.38,259.00 L 571.33,258.82 L 570.77,258.75 L 569.47,258.71 L 568.78,258.71 L 567.20,258.81 L 566.37,258.87 L 564.48,259.10 L 561.30,259.60 L 558.58,260.07 L 553.25,261.53 L 551.97,261.93 L 549.61,262.81 L 546.50,264.20 L 545.31,264.81 L 542.40,266.43 L 540.88,267.28 L 537.48,269.27 L 534.01,271.33 L 526.66,275.91 L 524.87,277.05 L 521.49,279.24 L 519.85,280.31 L 516.96,282.26 L 515.61,283.19 L 513.46,284.74 L 512.98,285.10 L 512.20,285.71 L 511.33,286.45 L 510.89,286.87 L 509.77,287.86 L 509.18,288.36 L 507.87,289.42 L 504.03,292.27 L 503.57,292.58 L 502.58,293.41 L 502.08,293.86 L 501.00,294.96 L 499.90,296.12 L 497.54,299.07 L 496.34,300.63 L 493.89,304.17 L 492.68,305.99 L 490.33,309.83 L 489.18,311.76 L 487.10,315.60 L 486.11,317.50 L 484.47,321.06 L 483.72,322.77 L 482.69,325.76 L 482.48,326.46 L 482.20,327.70 L 482.02,329.28 L 482.01,330.33 L 482.41,332.47 L 482.69,333.54 L 483.65,335.75 L 484.21,336.86 L 485.76,339.14 L 486.61,340.29 L 488.76,342.67 L 489.90,343.86 L 492.66,346.34 L 494.11,347.60 L 497.48,350.20 L 499.25,351.51 L 503.25,354.24 L 509.99,358.50 L 512.89,360.25 L 518.03,363.62 L 520.49,365.29 L 524.80,368.53 L 526.86,370.13 L 530.38,373.28 L 532.04,374.85 L 534.81,377.95 L 536.11,379.51 L 538.17,382.63 L 539.12,384.20 L 540.52,387.38 L 541.13,388.99 L 541.91,392.29 L 542.41,397.41 L 542.43,398.81 L 542.36,400.91 L 542.29,401.88 L 541.96,403.43 L 541.75,404.17 L 541.04,405.59 L 539.42,408.04 L 538.79,408.92 L 537.20,410.61 L 536.36,411.44 L 534.40,413.00 L 533.37,413.76 L 531.08,415.18 L 529.89,415.87 L 527.31,417.12 L 525.98,417.73 L 523.14,418.80 L 521.70,419.32 L 518.65,420.19 L 517.10,420.60 L 513.89,421.26 L 508.92,421.97 L 507.36,422.14 L 504.58,422.40 L 503.24,422.51 L 500.84,422.68 L 499.68,422.75 L 497.61,422.82 L 496.61,422.84 L 494.80,422.81 L 493.04,422.75 L 490.02,422.33 L 488.56,422.07 L 485.75,421.23 L 484.44,420.79 L 482.40,419.78 L 481.96,419.54 L 481.37,419.09 L 481.00,418.53 L 481.00,418.37 L 480.73,417.99 L 480.55,417.79 L 479.98,417.36 L 477.54,416.15 L 477.01,415.96 L 475.86,415.32 L 475.27,414.97 L 474.03,414.04 L 472.78,413.05 L 470.20,410.39 L 468.93,408.98 L 466.55,405.74 L 463.56,400.63 L 461.08,395.50 L 463.15,393.75 L 463.90,393.11 L 465.32,392.39 L 466.01,392.12 L 467.29,392.12 L 467.90,392.22 L 469.00,392.95 L 470.42,394.85 L 470.86,395.69 L 471.92,397.25 L 472.47,398.02 L 473.76,399.41 L 475.10,400.77 L 478.40,402.98 L 480.14,404.00 L 484.11,405.53 L 486.16,406.20 L 490.65,407.01 L 492.94,407.33 L 497.79,407.41 L 500.25,407.36 L 505.31,406.69 L 507.84,406.26 L 512.95,404.81 L 520.50,401.75 L 521.60,401.21 L 523.99,399.75 L 524.55,399.38 L 525.56,398.67 L 526.75,397.71 L 527.18,397.32 L 527.84,396.45 L 528.14,396.00 L 528.56,395.02 L 528.92,394.02 L 528.94,391.76 L 528.83,390.60 L 527.98,388.08 L 527.45,386.81 L 525.80,384.15 L 524.88,382.81 L 522.50,380.11 L 521.23,378.77 L 518.20,376.13 L 516.61,374.83 L 513.00,372.36 L 507.00,368.96 L 505.48,368.21 L 502.70,366.75 L 501.34,366.02 L 498.84,364.60 L 496.39,363.18 L 492.14,360.28 L 490.08,358.79 L 486.30,355.56 L 480.72,350.02 L 479.52,348.72 L 477.49,346.41 L 476.52,345.29 L 474.92,343.23 L 474.17,342.23 L 472.96,340.32 L 472.39,339.37 L 471.51,337.49 L 471.11,336.54 L 470.52,334.57 L 470.26,333.56 L 469.90,331.38 L 469.75,330.25 L 469.59,327.75 L 469.50,323.50 L 469.50,322.38 L 469.52,320.46 L 469.53,319.54 L 469.59,317.98 L 469.65,316.48 L 469.97,314.18 L 470.16,313.09 L 470.83,311.09 L 472.36,307.68 L 472.77,306.83 L 473.78,305.03 L 474.31,304.11 L 475.54,302.18 L 476.81,300.23 L 479.88,296.06 L 481.49,293.96 L 485.07,289.66 L 486.90,287.52 L 490.78,283.31 L 492.74,281.25 L 496.70,277.36 L 498.67,275.48 L 502.51,272.13 L 504.39,270.55 L 507.88,267.97 L 508.72,267.39 L 510.30,266.40 L 512.50,265.22 L 513.88,264.57 L 516.77,262.90 L 517.45,262.48 L 518.63,261.68 L 520.00,260.62 L 520.39,260.26 L 521.44,259.49 L 522.00,259.10 L 523.35,258.27 L 524.77,257.42 L 528.33,255.62 L 530.21,254.70 L 534.44,252.86 L 536.60,251.94 L 541.16,250.17 L 543.46,249.31 L 548.01,247.76 L 550.26,247.02 L 554.48,245.80 L 556.51,245.24 L 560.05,244.48 L 560.88,244.33 L 562.35,244.12 L 564.24,244.00 L 565.14,244.00 M 942.52,264.31 L 943.05,264.43 L 944.22,264.87 L 945.40,265.38 L 947.81,266.96 L 948.96,267.80 L 950.77,269.65 L 951.15,270.11 L 951.67,270.98 L 952.00,272.17 L 952.00,272.41 L 951.90,273.03 L 951.82,273.38 L 951.53,274.31 L 951.35,274.82 L 950.81,276.19 L 950.50,276.94 L 949.66,278.87 L 949.19,279.92 L 947.97,282.55 L 947.32,283.97 L 945.68,287.43 L 945.24,288.35 L 944.28,290.38 L 943.78,291.42 L 942.69,293.69 L 942.13,294.86 L 940.91,297.41 L 938.91,301.54 L 938.51,302.37 L 937.78,303.95 L 937.43,304.72 L 936.86,306.06 L 936.59,306.68 L 936.23,307.63 L 936.00,308.44 L 936.00,308.50 L 936.21,308.60 L 936.35,308.65 L 936.82,308.73 L 937.34,308.80 L 939.04,308.86 L 939.98,308.89 L 942.33,308.85 L 946.35,308.67 L 956.70,308.04 L 957.85,310.57 L 958.35,311.67 L 958.87,313.59 L 959.06,314.51 L 958.94,316.05 L 958.81,316.77 L 958.07,317.90 L 956.25,319.13 L 955.88,319.27 L 954.91,319.57 L 954.39,319.72 L 953.13,320.02 L 951.80,320.33 L 948.42,320.94 L 946.62,321.24 L 942.47,321.81 L 935.64,322.59 L 929.77,323.17 L 923.32,336.84 L 921.55,340.59 L 917.91,348.28 L 917.06,350.08 L 915.59,353.17 L 915.25,353.88 L 914.66,355.11 L 913.94,356.62 L 913.53,357.46 L 912.80,359.10 L 912.45,359.90 L 911.86,361.33 L 911.60,362.00 L 911.23,363.06 L 911.00,364.04 L 911.00,364.40 L 910.55,365.46 L 909.46,367.05 L 909.03,367.52 L 908.24,368.95 L 907.47,371.13 L 907.41,371.45 L 907.11,372.65 L 906.94,373.32 L 906.46,375.04 L 904.67,381.11 L 904.32,382.21 L 903.76,384.40 L 903.49,385.48 L 903.11,387.48 L 902.94,388.44 L 902.77,390.09 L 902.78,391.95 L 902.89,392.69 L 903.12,393.69 L 903.25,394.12 L 903.65,394.61 L 903.89,394.80 L 904.61,394.90 L 906.24,394.75 L 906.97,394.64 L 907.92,394.57 L 908.33,394.57 L 908.75,394.85 L 908.91,395.06 L 908.95,395.88 L 908.72,397.91 L 908.58,398.86 L 908.01,401.11 L 907.69,402.28 L 906.80,404.84 L 905.85,407.44 L 903.39,412.77 L 902.76,414.05 L 901.47,416.41 L 900.82,417.54 L 899.58,419.46 L 898.98,420.35 L 897.87,421.65 L 896.48,422.69 L 896.34,422.73 L 895.73,422.64 L 895.38,422.56 L 894.44,422.26 L 893.44,421.91 L 890.98,420.76 L 890.17,420.35 L 888.79,419.48 L 888.14,419.02 L 887.06,418.02 L 886.56,417.50 L 885.76,416.32 L 885.40,415.71 L 884.87,414.32 L 884.63,413.59 L 884.36,411.93 L 884.25,411.07 L 884.22,409.10 L 884.23,408.07 L 884.42,405.75 L 884.94,401.83 L 885.31,399.54 L 886.28,395.15 L 886.52,394.15 L 887.00,392.51 L 887.63,390.80 L 888.01,390.06 L 888.60,388.18 L 889.00,385.68 L 889.00,385.34 L 889.13,384.39 L 889.21,383.88 L 889.47,382.68 L 890.61,378.88 L 891.05,377.67 L 891.84,375.07 L 892.01,374.46 L 892.29,373.36 L 892.54,372.08 L 892.63,371.41 L 893.22,370.11 L 894.42,368.79 L 894.84,368.55 L 895.46,367.47 L 895.77,365.54 L 895.75,365.21 L 895.98,364.04 L 896.14,363.38 L 896.70,361.71 L 897.01,360.83 L 897.80,358.87 L 899.19,355.83 L 899.55,355.11 L 900.40,353.33 L 900.85,352.40 L 901.85,350.26 L 902.37,349.16 L 903.49,346.74 L 904.06,345.50 L 905.26,342.87 L 906.48,340.21 L 909.00,334.60 L 912.63,326.38 L 912.72,326.17 L 912.68,325.80 L 912.63,325.62 L 912.29,325.31 L 912.09,325.16 L 911.44,324.90 L 911.08,324.78 L 910.10,324.58 L 909.57,324.48 L 908.26,324.33 L 907.56,324.26 L 905.89,324.15 L 905.01,324.11 L 902.98,324.05 L 899.50,324.01 L 898.12,324.01 L 895.65,323.94 L 894.46,323.90 L 892.33,323.74 L 891.30,323.66 L 889.49,323.41 L 888.62,323.28 L 887.11,322.93 L 886.38,322.75 L 885.13,322.30 L 884.54,322.06 L 883.54,321.50 L 881.32,319.37 L 880.97,318.82 L 880.51,318.02 L 880.33,317.66 L 880.21,317.12 L 880.20,316.88 L 880.41,316.49 L 881.08,315.93 L 881.47,315.68 L 882.67,315.28 L 884.50,314.99 L 884.64,314.99 L 885.21,314.96 L 885.54,314.94 L 886.46,314.87 L 886.96,314.83 L 888.19,314.72 L 888.83,314.67 L 890.32,314.54 L 891.86,314.40 L 895.52,314.06 L 901.50,313.49 L 903.56,313.29 L 907.38,312.92 L 909.21,312.75 L 912.31,312.45 L 913.03,312.38 L 914.26,312.27 L 914.84,312.22 L 915.78,312.13 L 916.20,312.09 L 916.79,312.04 L 917.25,312.01 L 917.46,312.01 L 917.78,311.59 L 918.00,310.58 L 918.00,310.39 L 918.28,309.45 L 918.45,308.91 L 919.03,307.43 L 919.35,306.64 L 920.14,304.81 L 921.50,301.86 L 921.98,300.86 L 922.86,298.94 L 923.28,298.02 L 923.97,296.40 L 924.29,295.64 L 924.73,294.50 L 925.00,293.53 L 925.00,293.39 L 925.20,292.74 L 925.33,292.37 L 925.74,291.36 L 927.50,287.58 L 928.19,286.23 L 929.28,283.64 L 929.51,283.05 L 929.82,282.08 L 930.03,281.08 L 930.04,280.86 L 930.38,279.88 L 930.60,279.31 L 931.31,277.76 L 931.69,276.94 L 932.67,275.04 L 934.32,272.00 L 935.15,270.54 L 936.50,268.35 L 937.14,267.36 L 938.21,266.00 L 938.72,265.40 L 939.66,264.70 L 941.07,264.20 L 941.50,264.15 M 852.03,313.00 L 852.95,313.16 L 854.54,313.48 L 855.30,313.63 L 856.59,313.96 L 857.81,314.31 L 859.62,315.18 L 860.45,315.68 L 861.82,317.06 L 863.87,320.02 L 864.64,321.28 L 865.53,323.86 L 865.87,325.18 L 865.87,328.03 L 865.82,328.77 L 865.54,330.34 L 865.38,331.15 L 864.87,332.86 L 864.59,333.74 L 863.86,335.64 L 862.50,338.70 L 862.02,339.72 L 861.14,341.64 L 860.72,342.57 L 860.03,344.18 L 859.71,344.93 L 859.28,346.06 L 859.00,347.00 L 859.00,347.26 L 858.40,347.98 L 856.96,349.02 L 856.52,349.25 L 855.78,349.46 L 855.41,349.51 L 854.66,349.29 L 854.26,349.12 L 853.31,348.40 L 851.46,346.66 L 850.72,345.92 L 849.67,344.70 L 849.21,344.11 L 848.62,342.98 L 848.37,342.40 L 848.12,341.06 L 848.00,338.51 L 848.00,336.92 L 848.49,334.34 L 850.00,331.27 L 850.62,330.48 L 851.41,329.27 L 851.73,328.72 L 851.90,327.95 L 851.91,327.61 L 851.47,327.22 L 850.12,327.00 L 849.49,327.00 L 847.78,327.41 L 846.86,327.67 L 844.70,328.55 L 843.58,329.03 L 841.12,330.27 L 839.87,330.93 L 837.27,332.45 L 834.66,334.02 L 829.65,337.61 L 828.47,338.52 L 826.35,340.32 L 823.67,342.94 L 822.89,343.81 L 821.64,345.59 L 821.06,346.50 L 820.24,348.38 L 819.88,349.34 L 819.48,351.37 L 819.34,352.40 L 819.37,354.59 L 819.44,355.72 L 819.91,358.13 L 820.20,359.36 L 821.10,362.03 L 821.61,363.39 L 822.95,366.34 L 825.45,371.13 L 826.90,373.70 L 829.26,378.43 L 830.35,380.72 L 832.00,384.88 L 832.74,386.90 L 833.68,390.50 L 834.29,395.29 L 834.31,396.31 L 834.23,397.87 L 834.16,398.59 L 833.81,399.77 L 833.60,400.33 L 832.89,401.39 L 831.32,403.14 L 830.71,403.75 L 829.18,404.83 L 828.36,405.35 L 826.47,406.25 L 825.48,406.68 L 823.30,407.38 L 822.19,407.71 L 819.80,408.20 L 817.38,408.63 L 812.25,408.80 L 810.97,408.78 L 808.42,408.55 L 807.16,408.41 L 804.72,407.91 L 802.71,407.44 L 799.31,406.10 L 797.71,405.36 L 795.06,403.46 L 793.82,402.43 L 791.86,399.90 L 789.62,395.34 L 789.34,394.55 L 788.97,393.24 L 788.81,392.62 L 788.71,391.66 L 788.69,391.22 L 788.86,390.59 L 788.99,390.32 L 789.47,390.03 L 789.75,389.92 L 790.55,389.96 L 790.99,390.01 L 792.14,390.36 L 792.76,390.57 L 794.27,391.23 L 796.96,392.55 L 798.79,393.50 L 802.13,394.80 L 803.76,395.35 L 806.79,395.89 L 808.28,396.06 L 811.12,395.83 L 815.28,394.65 L 816.58,394.11 L 818.42,393.04 L 819.23,392.48 L 820.17,391.24 L 820.53,390.58 L 820.67,388.98 L 820.11,385.96 L 819.94,385.41 L 819.34,383.92 L 819.00,383.13 L 818.12,381.31 L 815.03,375.74 L 813.88,373.89 L 811.85,369.90 L 810.88,367.87 L 809.28,363.67 L 808.53,361.55 L 807.41,357.30 L 806.35,351.07 L 806.24,350.06 L 806.20,348.16 L 806.20,347.23 L 806.41,345.47 L 806.54,344.60 L 807.02,342.90 L 807.30,342.06 L 808.08,340.38 L 808.52,339.54 L 809.64,337.81 L 810.24,336.94 L 811.73,335.12 L 812.52,334.19 L 814.40,332.21 L 817.70,329.01 L 819.10,327.70 L 821.77,325.44 L 823.10,324.35 L 825.83,322.40 L 827.22,321.45 L 830.25,319.64 L 835.40,316.91 L 845.55,311.86 M 1426.44,324.52 L 1427.20,324.83 L 1428.76,326.02 L 1431.00,328.66 L 1431.82,329.88 L 1432.83,332.66 L 1433.22,334.11 L 1433.37,337.36 L 1433.34,339.04 L 1432.64,342.77 L 1430.62,348.92 L 1430.26,349.80 L 1429.64,351.45 L 1429.35,352.24 L 1428.91,353.59 L 1428.71,354.21 L 1428.49,355.11 L 1428.46,355.80 L 1428.54,355.87 L 1429.04,355.74 L 1429.35,355.64 L 1430.28,355.19 L 1430.78,354.93 L 1432.05,354.21 L 1432.72,353.82 L 1434.24,352.88 L 1435.82,351.89 L 1439.45,349.44 L 1445.00,345.43 L 1445.76,344.86 L 1447.69,343.52 L 1448.70,342.83 L 1450.94,341.39 L 1452.07,340.68 L 1454.35,339.31 L 1457.50,337.54 L 1458.91,336.79 L 1461.14,335.71 L 1462.18,335.24 L 1463.87,334.65 L 1464.68,334.41 L 1466.13,334.23 L 1468.33,334.32 L 1469.37,334.46 L 1471.24,335.04 L 1472.13,335.38 L 1473.65,336.33 L 1474.36,336.84 L 1475.47,338.11 L 1476.61,340.34 L 1476.79,340.90 L 1477.51,342.24 L 1478.76,343.90 L 1479.04,344.19 L 1479.45,345.28 L 1479.63,345.90 L 1479.83,347.62 L 1479.90,348.55 L 1479.90,350.82 L 1479.87,352.01 L 1479.67,354.75 L 1479.55,356.17 L 1479.16,359.30 L 1478.94,360.90 L 1478.37,364.35 L 1478.06,366.11 L 1477.31,369.79 L 1476.00,375.50 L 1475.58,377.22 L 1474.86,380.43 L 1474.52,381.99 L 1473.96,384.89 L 1473.70,386.30 L 1473.31,388.88 L 1473.14,390.13 L 1472.92,392.40 L 1472.83,393.50 L 1472.78,395.45 L 1472.77,396.39 L 1472.89,398.03 L 1472.97,398.81 L 1473.25,400.13 L 1473.87,401.75 L 1474.25,402.47 L 1474.46,403.94 L 1474.48,404.66 L 1474.04,405.96 L 1473.74,406.56 L 1472.77,407.43 L 1470.85,408.00 L 1470.56,408.00 L 1469.74,407.70 L 1469.30,407.51 L 1468.26,406.89 L 1467.20,406.20 L 1464.98,404.21 L 1464.08,403.32 L 1462.62,401.52 L 1461.95,400.60 L 1460.92,398.62 L 1460.46,397.60 L 1459.87,395.30 L 1459.62,394.09 L 1459.45,391.29 L 1459.42,389.82 L 1459.68,386.37 L 1459.86,384.55 L 1460.54,380.29 L 1460.73,379.17 L 1461.20,376.74 L 1461.45,375.50 L 1462.02,372.81 L 1462.32,371.43 L 1462.99,368.47 L 1464.13,363.69 L 1464.55,361.93 L 1465.28,358.67 L 1465.62,357.11 L 1466.14,354.48 L 1466.25,353.87 L 1466.43,352.83 L 1466.52,352.33 L 1466.63,351.55 L 1466.67,351.19 L 1466.70,350.69 L 1466.65,350.32 L 1466.53,350.19 L 1466.05,350.16 L 1465.78,350.18 L 1465.02,350.42 L 1464.61,350.57 L 1463.59,351.06 L 1463.05,351.34 L 1461.78,352.08 L 1461.12,352.47 L 1459.64,353.43 L 1458.87,353.94 L 1457.18,355.11 L 1455.45,356.33 L 1451.47,359.33 L 1449.40,360.91 L 1444.87,364.55 L 1442.56,366.43 L 1437.65,370.57 L 1435.17,372.70 L 1430.05,377.23 L 1422.30,384.32 L 1421.19,385.36 L 1419.34,387.08 L 1418.47,387.88 L 1417.05,389.16 L 1416.38,389.75 L 1415.29,390.64 L 1414.78,391.05 L 1413.94,391.61 L 1413.55,391.85 L 1412.88,392.13 L 1412.55,392.24 L 1411.96,392.29 L 1410.05,391.87 L 1409.10,391.54 L 1407.34,390.42 L 1406.50,389.81 L 1405.10,388.29 L 1404.46,387.50 L 1403.57,385.78 L 1403.00,383.20 L 1403.00,382.78 L 1403.26,381.33 L 1403.43,380.52 L 1404.00,378.39 L 1404.32,377.26 L 1405.15,374.60 L 1405.59,373.22 L 1406.63,370.16 L 1407.71,367.03 L 1410.32,360.16 L 1414.49,350.02 L 1415.83,346.96 L 1418.04,340.68 L 1418.53,339.18 L 1419.28,336.48 L 1419.98,333.11 L 1420.23,331.34 L 1421.06,328.14 L 1421.27,327.42 L 1421.72,326.29 L 1422.36,325.21 L 1422.91,324.66 L 1424.24,324.22 L 1424.93,324.11 M 1526.08,337.46 L 1526.49,337.56 L 1527.27,338.00 L 1528.54,339.04 L 1529.17,339.63 L 1530.49,341.36 L 1531.96,343.89 L 1532.26,344.62 L 1532.43,346.34 L 1532.43,346.83 L 1532.28,347.99 L 1532.18,348.62 L 1531.81,350.15 L 1531.60,350.97 L 1530.98,352.97 L 1530.65,354.04 L 1529.76,356.61 L 1529.28,357.98 L 1528.10,361.23 L 1525.95,367.00 L 1525.51,368.17 L 1524.49,371.01 L 1523.97,372.48 L 1522.88,375.65 L 1522.34,377.23 L 1521.31,380.33 L 1519.98,384.50 L 1519.58,385.82 L 1518.84,388.22 L 1518.48,389.38 L 1517.83,391.47 L 1517.52,392.48 L 1516.95,394.29 L 1516.68,395.16 L 1516.19,396.70 L 1515.72,398.18 L 1514.96,400.45 L 1514.60,401.47 L 1514.03,402.96 L 1513.76,403.62 L 1513.31,404.50 L 1513.09,404.88 L 1512.68,405.31 L 1511.31,405.81 L 1510.95,405.86 L 1510.22,405.74 L 1509.85,405.65 L 1509.11,405.23 L 1508.73,404.99 L 1507.95,404.26 L 1507.56,403.85 L 1506.73,402.81 L 1506.06,401.90 L 1504.81,399.74 L 1504.53,399.21 L 1504.08,398.23 L 1503.64,397.00 L 1503.52,396.53 L 1503.46,395.22 L 1503.46,394.50 L 1503.65,392.67 L 1503.78,391.69 L 1504.23,389.32 L 1504.48,388.06 L 1505.19,385.12 L 1505.58,383.57 L 1506.56,380.03 L 1507.08,378.18 L 1508.33,374.00 L 1509.00,371.84 L 1510.53,367.01 L 1513.16,359.00 L 1513.58,357.75 L 1514.34,355.47 L 1514.71,354.37 L 1515.39,352.38 L 1516.04,350.45 L 1517.11,347.34 L 1517.62,345.91 L 1518.45,343.68 L 1518.85,342.66 L 1519.51,341.14 L 1519.83,340.46 L 1520.40,339.51 L 1520.68,339.09 L 1521.23,338.54 L 1523.13,337.69 L 1523.76,337.53 L 1524.78,337.38 L 1525.26,337.34 M 741.20,318.59 L 742.92,318.83 L 743.34,318.93 L 744.20,319.26 L 744.64,319.46 L 745.61,320.03 L 746.11,320.35 L 747.30,321.24 L 747.92,321.72 L 749.42,322.97 L 750.22,323.65 L 752.14,325.35 L 755.60,328.45 L 757.10,329.80 L 759.86,332.33 L 761.18,333.54 L 763.39,335.62 L 763.90,336.10 L 764.77,336.94 L 765.18,337.34 L 765.83,337.99 L 766.13,338.29 L 766.53,338.71 L 766.81,339.08 L 766.86,339.19 L 766.69,340.12 L 766.56,340.69 L 766.10,342.37 L 765.84,343.29 L 765.16,345.50 L 763.94,349.16 L 763.46,350.57 L 762.68,353.20 L 762.32,354.49 L 761.79,356.91 L 761.56,358.09 L 761.29,360.36 L 761.18,361.48 L 761.16,363.65 L 761.21,365.81 L 762.07,370.08 L 762.35,371.17 L 763.11,373.40 L 764.53,376.89 L 765.25,378.50 L 766.96,381.18 L 767.87,382.45 L 770.00,384.48 L 771.12,385.42 L 773.72,386.86 L 778.24,388.40 L 779.02,388.58 L 780.33,389.23 L 780.94,389.60 L 781.89,390.55 L 782.33,391.05 L 782.92,392.17 L 783.17,392.75 L 783.38,393.95 L 783.44,394.55 L 783.27,395.71 L 783.14,396.28 L 782.57,397.30 L 782.23,397.78 L 781.26,398.55 L 779.32,399.29 L 778.13,399.53 L 775.68,399.56 L 774.45,399.50 L 771.98,398.97 L 770.74,398.63 L 768.28,397.57 L 767.06,396.98 L 764.66,395.42 L 763.47,394.58 L 761.17,392.54 L 760.04,391.47 L 757.88,389.00 L 756.83,387.71 L 754.86,384.83 L 752.16,380.07 L 751.62,379.00 L 750.61,376.95 L 750.12,375.95 L 749.27,374.18 L 748.88,373.35 L 748.29,372.07 L 747.81,370.92 L 747.73,370.69 L 747.39,370.55 L 747.20,370.54 L 746.62,370.86 L 746.30,371.08 L 745.47,371.85 L 743.94,373.52 L 741.53,376.34 L 735.94,381.98 L 733.07,384.76 L 727.05,389.93 L 725.55,391.16 L 722.57,393.45 L 721.10,394.56 L 718.24,396.55 L 716.84,397.50 L 714.18,399.12 L 710.50,401.05 L 708.75,401.85 L 705.65,403.02 L 704.16,403.54 L 701.46,404.14 L 700.14,404.38 L 697.68,404.45 L 696.47,404.43 L 694.12,403.99 L 693.15,403.77 L 691.30,402.77 L 690.39,402.19 L 688.74,400.56 L 687.95,399.68 L 686.57,397.51 L 684.93,393.75 L 684.68,393.00 L 684.37,391.72 L 684.24,391.09 L 684.18,389.90 L 684.19,389.31 L 684.38,388.02 L 684.96,385.75 L 685.26,384.75 L 686.09,382.40 L 686.54,381.19 L 687.63,378.50 L 688.78,375.76 L 691.61,369.74 L 693.07,366.73 L 696.21,360.86 L 696.99,359.44 L 698.53,356.80 L 700.76,353.22 L 701.55,352.02 L 703.10,349.61 L 703.86,348.42 L 705.24,346.23 L 705.89,345.18 L 706.93,343.46 L 707.95,341.69 L 708.23,341.13 L 709.35,339.63 L 709.99,338.83 L 711.68,336.95 L 712.58,335.98 L 714.66,333.88 L 715.74,332.82 L 718.05,330.66 L 719.22,329.59 L 721.58,327.52 L 722.76,326.52 L 725.01,324.70 L 726.11,323.84 L 728.07,322.43 L 730.52,320.96 L 732.13,320.16 L 735.40,319.15 L 740.10,318.57 M 1087.63,319.15 L 1088.49,319.25 L 1090.25,319.65 L 1091.99,320.11 L 1095.35,321.75 L 1096.15,322.21 L 1097.64,323.30 L 1099.65,325.15 L 1099.94,325.48 L 1100.72,326.45 L 1101.14,326.99 L 1102.07,328.26 L 1104.90,332.45 L 1105.58,333.54 L 1106.54,335.30 L 1106.96,336.16 L 1107.48,337.81 L 1107.70,338.67 L 1107.90,340.74 L 1107.94,341.30 L 1107.98,342.60 L 1108.00,344.85 L 1108.00,345.87 L 1107.88,348.34 L 1107.80,349.62 L 1107.55,352.35 L 1107.41,353.72 L 1107.05,356.38 L 1106.45,359.93 L 1106.24,361.00 L 1105.87,363.55 L 1105.70,364.86 L 1105.44,367.66 L 1105.33,369.06 L 1105.21,371.80 L 1105.20,375.53 L 1105.25,376.65 L 1105.30,378.46 L 1105.33,379.29 L 1105.42,380.59 L 1105.49,381.18 L 1105.72,382.03 L 1105.86,382.41 L 1106.32,382.88 L 1106.59,383.08 L 1107.38,383.24 L 1107.82,383.29 L 1109.02,383.22 L 1109.68,383.16 L 1111.39,382.91 L 1114.63,382.42 L 1115.52,382.29 L 1116.83,382.19 L 1117.43,382.17 L 1118.31,382.33 L 1118.72,382.45 L 1119.39,382.95 L 1120.38,384.13 L 1121.02,385.04 L 1121.69,386.66 L 1121.91,387.46 L 1121.71,389.02 L 1121.50,389.82 L 1120.36,391.56 L 1120.02,392.01 L 1119.14,393.00 L 1117.54,394.62 L 1116.22,395.88 L 1113.50,397.85 L 1112.14,398.75 L 1109.46,399.93 L 1108.15,400.42 L 1105.71,400.75 L 1105.12,400.77 L 1104.03,400.65 L 1102.53,400.20 L 1102.18,400.03 L 1101.39,399.38 L 1100.98,399.00 L 1100.12,397.96 L 1099.68,397.39 L 1098.77,396.02 L 1098.31,395.30 L 1097.39,393.66 L 1096.47,391.96 L 1094.73,388.00 L 1092.51,381.70 L 1092.29,380.91 L 1091.82,379.49 L 1091.58,378.80 L 1091.14,377.67 L 1090.93,377.16 L 1090.56,376.45 L 1090.16,376.00 L 1090.11,376.00 L 1089.79,376.24 L 1089.59,376.39 L 1088.99,376.91 L 1088.65,377.21 L 1087.81,377.98 L 1087.36,378.40 L 1086.30,379.40 L 1085.19,380.45 L 1082.50,383.08 L 1077.98,387.57 L 1076.37,389.20 L 1073.48,392.01 L 1072.09,393.35 L 1069.57,395.62 L 1068.35,396.70 L 1066.14,398.48 L 1065.06,399.32 L 1063.07,400.66 L 1062.09,401.28 L 1060.25,402.23 L 1059.34,402.66 L 1057.57,403.26 L 1056.68,403.52 L 1054.91,403.83 L 1052.17,404.00 L 1051.19,404.00 L 1049.58,403.87 L 1048.81,403.77 L 1047.47,403.40 L 1046.82,403.17 L 1045.53,402.46 L 1044.86,402.06 L 1043.39,400.95 L 1042.71,400.42 L 1041.56,399.47 L 1041.01,399.02 L 1040.11,398.19 L 1039.25,397.38 L 1038.16,395.93 L 1037.70,395.20 L 1037.24,393.66 L 1037.00,390.87 L 1037.00,390.26 L 1037.11,388.75 L 1037.18,387.95 L 1037.42,386.14 L 1037.68,384.28 L 1038.52,380.06 L 1038.97,377.93 L 1040.06,373.72 L 1041.82,368.24 L 1042.62,366.11 L 1044.82,361.58 L 1046.00,359.28 L 1048.82,354.52 L 1050.29,352.14 L 1053.58,347.36 L 1055.27,344.99 L 1058.88,340.39 L 1060.71,338.12 L 1064.48,333.89 L 1066.36,331.83 L 1070.13,328.16 L 1072.00,326.41 L 1075.61,323.49 L 1076.50,322.81 L 1078.21,321.64 L 1080.68,320.16 L 1081.32,319.83 L 1082.76,319.38 L 1083.50,319.20 L 1085.10,319.06 L 1085.92,319.02 M 1338.75,321.82 L 1339.51,321.96 L 1340.96,322.76 L 1343.02,324.76 L 1343.76,325.70 L 1344.57,327.56 L 1344.87,328.53 L 1344.74,330.71 L 1344.65,331.29 L 1344.28,332.57 L 1344.06,333.23 L 1343.44,334.71 L 1343.09,335.47 L 1342.21,337.19 L 1340.58,340.09 L 1340.00,341.08 L 1338.84,343.27 L 1338.27,344.40 L 1337.13,346.83 L 1335.99,349.32 L 1333.85,354.83 L 1332.80,357.64 L 1330.93,363.56 L 1328.58,372.50 L 1328.29,373.79 L 1327.83,375.97 L 1327.61,377.01 L 1327.32,378.74 L 1327.19,379.56 L 1327.07,380.90 L 1327.03,381.53 L 1327.08,382.56 L 1327.13,383.03 L 1327.37,383.79 L 1327.52,384.15 L 1327.95,384.72 L 1330.02,386.01 L 1330.69,386.29 L 1332.15,386.52 L 1332.89,386.59 L 1334.47,386.42 L 1335.28,386.30 L 1336.96,385.76 L 1337.81,385.45 L 1339.57,384.57 L 1340.45,384.09 L 1342.25,382.90 L 1343.16,382.27 L 1344.98,380.80 L 1346.81,379.26 L 1350.41,375.46 L 1352.19,373.46 L 1355.54,368.91 L 1357.16,366.56 L 1360.05,361.50 L 1361.42,358.92 L 1363.64,353.58 L 1365.98,345.50 L 1366.28,344.03 L 1366.92,341.41 L 1367.24,340.15 L 1367.95,337.95 L 1368.31,336.90 L 1369.10,335.10 L 1369.50,334.25 L 1370.39,332.83 L 1370.84,332.17 L 1371.83,331.11 L 1372.34,330.63 L 1373.44,329.92 L 1374.02,329.61 L 1375.26,329.23 L 1377.28,329.00 L 1377.85,329.00 L 1378.85,329.15 L 1379.32,329.25 L 1380.14,329.61 L 1380.53,329.82 L 1381.17,330.40 L 1381.47,330.73 L 1381.95,331.55 L 1382.16,331.99 L 1382.48,333.07 L 1382.62,333.64 L 1382.77,334.98 L 1382.83,335.68 L 1382.84,337.30 L 1382.70,340.05 L 1382.57,341.55 L 1382.16,344.16 L 1381.91,345.45 L 1381.08,348.15 L 1380.84,348.86 L 1380.23,350.42 L 1379.90,351.23 L 1379.11,353.04 L 1378.69,353.98 L 1377.68,356.13 L 1375.90,359.81 L 1374.52,362.63 L 1371.91,367.68 L 1370.62,370.11 L 1368.14,374.43 L 1366.91,376.51 L 1364.51,380.18 L 1363.31,381.94 L 1360.92,385.04 L 1359.72,386.53 L 1357.29,389.13 L 1356.06,390.38 L 1353.51,392.57 L 1352.22,393.61 L 1349.50,395.46 L 1345.16,397.92 L 1343.42,398.80 L 1340.34,399.96 L 1338.84,400.44 L 1335.99,400.83 L 1334.56,400.93 L 1331.58,400.57 L 1330.04,400.29 L 1326.57,399.21 L 1325.61,398.87 L 1324.03,398.16 L 1323.28,397.79 L 1322.01,396.89 L 1321.39,396.40 L 1320.23,395.18 L 1318.45,392.83 L 1317.50,391.43 L 1315.92,387.92 L 1315.19,386.08 L 1314.13,382.00 L 1313.68,379.92 L 1313.24,375.67 L 1313.36,369.56 L 1313.49,368.51 L 1313.89,366.17 L 1314.11,364.96 L 1314.69,362.37 L 1315.32,359.73 L 1317.01,354.02 L 1317.92,351.15 L 1320.04,345.41 L 1323.49,337.42 L 1324.38,335.57 L 1326.16,332.36 L 1327.05,330.83 L 1328.81,328.26 L 1329.69,327.06 L 1331.42,325.14 L 1332.27,324.27 L 1333.95,323.02 L 1334.79,322.48 L 1336.40,321.91 L 1337.20,321.71 M 585.67,323.04 L 587.43,323.62 L 589.44,325.22 L 589.70,325.59 L 590.11,326.65 L 590.30,327.23 L 590.59,328.66 L 590.85,330.15 L 590.98,333.74 L 590.99,335.57 L 590.61,339.18 L 590.49,340.05 L 590.14,341.64 L 589.48,343.70 L 589.36,343.98 L 589.12,344.77 L 589.00,345.20 L 588.74,346.27 L 588.48,347.40 L 587.95,350.34 L 587.68,351.89 L 587.16,355.40 L 586.90,357.19 L 586.43,360.93 L 586.21,362.80 L 585.83,366.43 L 585.66,368.20 L 585.42,371.37 L 585.32,372.86 L 585.26,375.23 L 585.26,375.76 L 585.29,376.60 L 585.41,377.51 L 585.59,378.22 L 586.18,379.18 L 586.51,379.59 L 587.37,379.97 L 587.83,380.09 L 588.94,379.94 L 589.51,379.80 L 590.82,379.16 L 591.50,378.79 L 592.98,377.70 L 593.73,377.10 L 595.35,375.61 L 596.17,374.82 L 597.89,372.97 L 598.75,372.01 L 600.53,369.84 L 602.33,367.61 L 605.96,362.38 L 607.76,359.66 L 611.21,353.73 L 612.88,350.71 L 615.86,344.43 L 619.49,335.00 L 619.85,333.89 L 620.56,331.99 L 620.92,331.09 L 621.65,329.62 L 622.02,328.94 L 622.79,327.88 L 623.19,327.40 L 624.04,326.73 L 624.48,326.44 L 625.44,326.14 L 625.93,326.03 L 627.02,326.08 L 627.59,326.15 L 628.84,326.53 L 630.93,327.46 L 631.57,327.80 L 632.63,328.61 L 633.12,329.05 L 633.88,330.07 L 634.22,330.61 L 634.68,331.86 L 634.88,332.51 L 635.04,333.98 L 635.08,334.75 L 634.94,336.45 L 634.83,337.34 L 634.40,339.28 L 634.14,340.29 L 633.41,342.49 L 631.97,346.07 L 630.86,348.60 L 628.99,353.88 L 628.12,356.53 L 626.79,361.78 L 626.20,364.38 L 625.49,369.27 L 625.36,370.45 L 625.21,372.69 L 625.21,375.83 L 625.50,382.50 L 628.68,382.81 L 629.82,382.92 L 632.31,382.45 L 633.59,382.11 L 636.30,380.78 L 637.68,380.01 L 640.55,377.89 L 642.00,376.73 L 644.96,373.86 L 646.45,372.34 L 649.45,368.80 L 650.95,366.95 L 653.93,362.79 L 655.41,360.65 L 658.30,355.94 L 662.47,348.32 L 663.22,346.86 L 664.65,344.32 L 665.36,343.11 L 666.73,341.09 L 667.41,340.14 L 668.71,338.64 L 669.35,337.95 L 670.60,336.97 L 671.21,336.53 L 672.40,336.06 L 672.99,335.88 L 674.13,335.91 L 674.70,335.99 L 675.79,336.52 L 677.39,337.88 L 677.73,338.25 L 678.25,339.13 L 678.49,339.59 L 678.81,340.64 L 678.95,341.20 L 679.09,342.44 L 679.13,343.09 L 679.07,344.52 L 679.02,345.27 L 678.76,346.89 L 678.61,347.73 L 678.16,349.55 L 677.92,350.48 L 677.27,352.50 L 676.09,355.75 L 675.24,357.91 L 673.48,361.53 L 673.00,362.42 L 671.90,364.20 L 671.32,365.09 L 669.93,366.98 L 669.19,367.94 L 667.41,370.07 L 666.47,371.18 L 664.20,373.69 L 663.00,375.01 L 660.14,378.03 L 655.07,383.29 L 653.71,384.69 L 651.27,387.10 L 650.09,388.24 L 647.94,390.18 L 646.89,391.10 L 644.94,392.63 L 643.98,393.34 L 642.15,394.50 L 641.24,395.04 L 639.45,395.88 L 638.55,396.26 L 636.72,396.83 L 635.79,397.09 L 633.84,397.43 L 630.67,397.75 L 629.83,397.81 L 628.40,397.88 L 627.73,397.91 L 626.60,397.93 L 625.53,397.93 L 623.94,397.68 L 623.19,397.51 L 621.80,396.82 L 619.31,395.13 L 618.28,394.39 L 616.60,392.64 L 615.82,391.73 L 614.64,389.68 L 614.11,388.62 L 613.43,386.29 L 612.99,382.50 L 612.98,381.78 L 612.81,380.61 L 612.70,380.07 L 612.34,379.27 L 612.14,378.91 L 611.62,378.48 L 611.35,378.31 L 610.70,378.24 L 610.36,378.26 L 609.59,378.56 L 609.20,378.76 L 608.36,379.42 L 607.93,379.80 L 607.03,380.83 L 605.64,382.79 L 604.85,384.04 L 602.51,386.78 L 601.25,388.17 L 598.27,390.93 L 596.74,392.28 L 593.50,394.71 L 588.78,397.60 L 587.40,398.31 L 585.23,399.22 L 584.22,399.59 L 582.57,399.87 L 581.78,399.93 L 580.37,399.60 L 579.67,399.36 L 578.21,398.43 L 577.51,397.94 L 576.22,396.55 L 575.60,395.78 L 574.48,393.89 L 573.94,392.88 L 573.00,390.53 L 572.55,389.30 L 571.81,386.56 L 571.46,385.14 L 570.92,382.05 L 570.68,380.46 L 570.35,377.07 L 570.22,375.35 L 570.13,371.72 L 570.27,366.06 L 570.36,364.44 L 570.76,360.69 L 570.99,358.75 L 571.63,354.59 L 572.32,350.36 L 574.14,341.78 L 574.61,339.71 L 575.60,335.86 L 576.09,334.00 L 577.08,330.78 L 577.56,329.28 L 578.48,326.95 L 578.70,326.44 L 579.12,325.63 L 579.72,324.76 L 580.30,324.12 L 581.94,323.36 L 582.81,323.07 L 584.72,323.00 M 1087.41,333.40 L 1086.31,333.74 L 1085.74,333.96 L 1084.49,334.63 L 1083.85,335.01 L 1082.46,335.98 L 1081.75,336.51 L 1080.25,337.76 L 1079.49,338.42 L 1077.90,339.93 L 1076.30,341.49 L 1072.91,345.27 L 1071.20,347.26 L 1067.75,351.71 L 1066.03,354.00 L 1062.68,358.93 L 1061.04,361.43 L 1057.98,366.61 L 1053.91,374.46 L 1053.29,375.78 L 1052.25,378.08 L 1051.76,379.18 L 1050.98,381.08 L 1050.62,381.98 L 1050.07,383.54 L 1049.83,384.27 L 1049.52,385.53 L 1049.39,386.12 L 1049.30,387.13 L 1049.28,387.60 L 1049.40,388.41 L 1050.48,390.34 L 1051.02,390.88 L 1051.82,391.53 L 1052.21,391.78 L 1053.12,391.78 L 1053.38,391.74 L 1054.02,391.51 L 1054.36,391.38 L 1055.20,390.96 L 1055.65,390.72 L 1056.77,390.10 L 1057.37,389.76 L 1058.83,388.92 L 1059.64,388.46 L 1061.56,387.11 L 1062.57,386.37 L 1064.80,384.55 L 1065.94,383.59 L 1068.36,381.41 L 1069.58,380.29 L 1072.08,377.87 L 1074.58,375.40 L 1079.36,370.20 L 1080.49,368.91 L 1082.57,366.40 L 1085.29,362.85 L 1086.57,361.05 L 1088.97,357.16 L 1090.13,355.20 L 1092.07,351.40 L 1092.52,350.47 L 1093.28,348.73 L 1093.64,347.89 L 1094.21,346.35 L 1094.46,345.61 L 1094.79,344.33 L 1095.00,342.78 L 1095.00,342.48 L 1094.83,341.72 L 1094.72,341.32 L 1094.37,340.42 L 1093.99,339.50 L 1092.85,337.54 L 1092.25,336.58 L 1090.95,334.96 L 1090.63,334.60 L 1090.02,334.05 L 1089.19,333.53 L 1088.81,333.38 L 1087.89,333.36 M 738.75,333.20 L 738.22,333.30 L 737.11,333.72 L 736.53,333.96 L 735.31,334.66 L 733.30,336.01 L 732.70,336.45 L 731.40,337.57 L 730.73,338.16 L 729.31,339.55 L 727.87,341.00 L 724.74,344.60 L 723.15,346.50 L 719.84,350.80 L 718.18,353.02 L 714.86,357.79 L 713.21,360.21 L 710.05,365.19 L 708.50,367.69 L 705.65,372.65 L 704.28,375.10 L 701.91,379.79 L 699.09,386.25 L 698.85,386.89 L 698.59,387.76 L 698.50,388.13 L 698.59,388.58 L 698.69,388.77 L 699.22,388.93 L 700.57,389.00 L 700.92,389.00 L 701.81,388.87 L 702.27,388.79 L 703.30,388.52 L 704.34,388.22 L 706.30,387.36 L 706.88,387.06 L 708.20,386.27 L 708.88,385.85 L 710.36,384.82 L 711.88,383.75 L 715.31,381.01 L 717.07,379.56 L 720.83,376.23 L 722.72,374.51 L 726.59,370.80 L 728.51,368.92 L 732.27,365.05 L 734.11,363.11 L 737.55,359.27 L 739.20,357.38 L 742.10,353.80 L 745.61,348.93 L 746.22,348.00 L 747.32,346.25 L 747.84,345.41 L 748.71,343.97 L 749.11,343.31 L 749.65,342.34 L 750.00,341.58 L 750.00,341.50 L 749.71,341.04 L 749.53,340.77 L 748.94,340.00 L 746.38,337.00 L 745.83,336.39 L 744.78,335.38 L 744.26,334.91 L 743.26,334.19 L 742.76,333.86 L 741.78,333.43 L 741.29,333.25 L 740.29,333.10 L 739.79,333.06 M 1542.23,281.66 L 1543.06,282.08 L 1544.65,283.42 L 1545.42,284.16 L 1546.72,285.97 L 1548.11,288.98 L 1548.38,289.86 L 1548.66,291.19 L 1548.76,291.82 L 1548.68,292.93 L 1548.58,293.49 L 1548.06,294.74 L 1546.73,297.18 L 1546.06,298.31 L 1544.44,300.54 L 1543.60,301.63 L 1541.81,303.58 L 1540.92,304.49 L 1539.20,305.93 L 1536.95,307.25 L 1536.73,307.32 L 1536.11,307.36 L 1535.77,307.36 L 1534.98,307.26 L 1534.16,307.13 L 1532.42,306.54 L 1531.85,306.29 L 1530.78,305.52 L 1530.27,305.10 L 1529.36,304.05 L 1528.50,302.95 L 1527.40,300.37 L 1527.19,299.73 L 1526.97,298.49 L 1526.89,297.88 L 1526.97,296.80 L 1527.05,296.28 L 1527.46,295.46 L 1528.49,294.64 L 1528.75,294.54 L 1529.32,294.12 L 1529.61,293.88 L 1530.22,293.23 L 1530.83,292.52 L 1532.01,290.68 L 1532.57,289.73 L 1533.42,287.78 L 1534.00,285.29 L 1534.00,284.70 L 1534.46,283.62 L 1534.75,283.11 L 1535.70,282.26 L 1536.23,281.87 L 1537.55,281.34 L 1539.80,281.00 L 1540.58,281.00 M 448.81,256.78 L 449.46,257.29 L 449.82,257.62 L 450.23,258.51 L 450.27,259.74 L 450.13,260.10 L 449.52,260.60 L 449.19,260.81 L 448.43,260.97 L 448.05,261.01 L 447.43,260.82 L 447.17,260.67 L 447.00,260.08 L 447.00,259.83 L 447.17,258.98 L 447.59,257.63 L 447.71,257.33 L 447.94,256.93 L 448.06,256.77 L 448.32,256.65 L 448.47,256.63 Z" fill="rgba(114,127,109,1)"/>
<path d="M 81.19,626.30 L 81.44,626.39 L 81.78,626.61 L 82.00,627.00 L 82.00,627.32 L 81.65,627.71 L 81.43,627.87 L 80.73,627.95 L 80.36,627.95 L 79.45,627.71 L 78.98,627.55 L 78.00,627.00 L 77.71,626.81 L 77.40,626.53 L 77.30,626.40 L 77.38,626.23 L 77.48,626.15 L 77.99,626.07 L 79.25,626.02 L 80.01,626.01 M 44.80,530.81 L 45.58,531.00 L 45.64,531.00 L 45.74,531.27 L 45.78,531.44 L 45.86,532.03 L 45.93,532.68 L 46.01,534.75 L 46.05,535.87 L 46.05,538.60 L 46.05,540.01 L 45.99,543.03 L 45.96,544.54 L 45.84,547.49 L 45.78,548.92 L 45.62,551.43 L 45.53,552.59 L 45.33,554.28 L 45.28,554.64 L 45.17,555.13 L 45.00,555.50 L 44.73,555.67 L 44.27,555.85 L 44.08,555.90 L 43.92,555.81 L 43.90,555.72 L 43.70,555.00 L 43.26,553.50 L 43.22,553.36 L 43.14,552.88 L 43.10,552.60 L 43.01,551.86 L 42.92,551.07 L 42.73,548.89 L 42.64,547.72 L 42.48,545.00 L 42.28,540.62 L 42.23,539.39 L 42.16,537.34 L 42.14,536.38 L 42.11,534.81 L 42.10,534.07 L 42.12,532.92 L 42.13,532.44 L 42.13,532.60 L 42.17,533.48 L 42.26,535.41 L 42.34,536.54 L 42.52,538.91 L 42.63,540.19 L 42.79,541.92 L 42.87,542.64 L 43.00,543.98 L 43.06,544.51 L 43.18,545.48 L 43.23,545.83 L 43.33,546.44 L 43.38,546.61 L 43.46,546.87 L 43.50,546.87 L 43.57,546.80 L 43.61,546.64 L 43.67,546.24 L 43.71,545.92 L 43.77,545.22 L 43.80,544.75 L 43.99,542.91 L 44.18,541.83 L 44.30,541.40 L 44.53,540.62 L 44.66,540.37 L 44.92,540.00 L 45.05,540.00 L 45.42,539.65 L 45.64,539.11 L 45.72,538.71 L 46.00,536.82 L 46.00,535.61 L 45.91,533.56 L 45.75,532.49 L 45.62,532.08 L 45.32,531.36 L 45.11,531.12 L 44.77,530.80 M 43.52,530.37 L 43.63,530.41 L 43.44,530.37 Z" fill="rgba(167,191,162,1)"/>
<path d="M 42.63,540.19 L 42.52,538.91 L 42.34,536.54 L 42.26,535.41 L 42.17,533.48 L 42.13,532.60 L 42.13,531.34 L 42.25,530.42 L 42.37,530.29 L 43.06,530.28 L 44.36,530.58 L 44.65,530.70 L 45.11,531.12 L 45.32,531.36 L 45.62,532.08 L 45.75,532.49 L 45.91,533.56 L 46.00,535.61 L 46.00,536.82 L 45.72,538.71 L 45.64,539.11 L 45.42,539.65 L 45.05,540.00 L 44.92,540.00 L 44.66,540.37 L 44.53,540.62 L 44.30,541.40 L 44.18,541.83 L 43.99,542.91 L 43.80,544.75 L 43.77,545.22 L 43.71,545.92 L 43.67,546.24 L 43.61,546.64 L 43.57,546.80 L 43.50,546.87 L 43.46,546.87 L 43.38,546.61 L 43.33,546.44 L 43.23,545.83 L 43.18,545.48 L 43.06,544.51 L 43.00,543.98 L 42.87,542.64 L 42.79,541.92 M 464.00,201.50 L 464.00,201.09 L 464.41,200.44 L 465.39,200.00 L 465.78,200.00 L 466.55,200.44 L 467.36,201.50 L 467.56,202.01 L 467.31,202.63 L 465.97,203.00 L 465.43,203.00 L 464.58,202.56 L 464.22,202.29 M 366.00,105.00 L 366.00,104.42 L 366.24,103.67 L 366.41,103.35 L 367.11,103.11 L 367.54,103.05 L 368.85,103.30 L 371.68,104.20 L 372.26,104.41 L 373.17,104.80 L 373.59,104.99 L 374.19,105.34 L 374.45,105.51 L 374.74,105.82 L 374.84,105.97 L 374.82,106.23 L 374.77,106.35 L 374.43,106.55 L 374.22,106.65 L 373.58,106.80 L 373.22,106.86 L 372.27,106.95 L 370.50,107.00 L 369.54,107.00 L 368.18,106.93 L 367.58,106.87 L 366.81,106.64 L 366.49,106.50 L 366.16,106.03 L 366.04,105.76 Z" fill="rgba(247,251,246,1)"/>
</g>
</svg>